<svg width="120" height="54" viewBox="0 0 120 54" fill="none" xmlns="http://www.w3.org/2000/svg">
<path d="M8.38343 1.07764H10.7276V13.5139H9.25752L2.74151 5.13009V13.5139H0.397308V1.11735H2.30444L8.38343 8.82516V1.11735V1.07764Z" fill="#22202A"/>
<path d="M14.5419 9.89703C14.7008 10.9698 15.6146 11.7646 17.1642 11.7646C18.7137 11.7646 18.9918 11.4466 19.5084 10.9302L20.899 12.2809C19.9852 13.2345 18.4753 13.7113 17.1245 13.7113C14.1048 13.7113 12.3169 11.8442 12.3169 9.06266C12.3169 6.28159 14.1048 4.49365 16.9655 4.49365C19.8262 4.49365 21.7333 6.28159 21.3757 9.89703H14.5419ZM19.3097 8.10909C19.1508 6.95721 18.2767 6.40079 17.045 6.40079C15.8133 6.40079 14.8995 6.95721 14.5816 8.10909H19.3097Z" fill="#22202A"/>
<path d="M28.4083 4.77198H30.9909V4.85162L28.1302 9.1031L31.1895 13.4733C31.1895 13.5134 28.607 13.5134 28.607 13.5134L26.6998 10.573L24.7927 13.5134H22.2101C22.2101 13.4733 25.2695 9.06303 25.2695 9.06303L22.4088 4.81206V4.73242H24.9913L26.6998 7.67276L28.4083 4.73242V4.77198Z" fill="#22202A"/>
<path d="M35.3217 2.30843V4.77163H37.7455V6.6392H35.3217V10.4139C35.3217 11.2483 35.7985 11.6454 36.4739 11.6454C37.1495 11.6454 37.1891 11.5262 37.5071 11.3675L38.1031 13.195C37.467 13.4334 36.9507 13.5526 36.315 13.5526C34.4078 13.6322 33.1761 12.5594 33.1761 10.3738V6.59964H31.5471V4.73207H33.1761V2.4674L35.3217 2.229V2.30843Z" fill="#22202A"/>
<path d="M48.7511 4.13696C47.9167 3.34215 46.6852 2.90529 45.6124 2.90529C42.95 2.90529 41.3609 4.93177 41.3609 7.47445C41.3609 10.0171 42.5529 11.6067 45.6124 11.6067C48.6714 11.6067 47.4399 11.4079 48.3935 10.6131V8.42801H45.2147V6.32205H50.539V11.5667C49.3075 12.9575 47.7579 13.7918 45.6124 13.7918C40.9638 13.7918 39.0566 10.7323 39.0566 7.47445C39.0566 4.2166 41.2417 0.759766 45.6124 0.759766C49.9826 0.759766 48.9499 1.39551 50.221 2.6669L48.7511 4.13696Z" fill="#22202A"/>
<path d="M54.3138 9.89703C54.4725 10.9698 55.3865 11.7646 56.9361 11.7646C58.4856 11.7646 58.7636 11.4466 59.2799 10.9302L60.6707 12.2809C59.7567 13.2345 58.2472 13.7113 56.896 13.7113C53.8766 13.7113 52.0886 11.8442 52.0886 9.06266C52.0886 6.28159 53.8766 4.49365 56.7373 4.49365C59.598 4.49365 61.5051 6.28159 61.1475 9.89703H54.3138ZM59.0816 8.10909C58.9223 6.95721 58.0484 6.40079 56.8169 6.40079C55.5849 6.40079 54.6714 6.95721 54.3533 8.10909H59.0816Z" fill="#22202A"/>
<path d="M69.2528 13.5139V8.94437C69.2528 7.63321 68.5376 6.60053 67.1468 6.60053C65.7566 6.60053 64.9222 7.71285 64.9222 9.06357V13.5139H62.7767V4.77251H64.7234L64.8821 5.96447C65.7566 5.09054 66.6701 4.65332 67.7428 4.65332C69.8092 4.65332 71.4379 6.20286 71.4379 8.94437V13.5534H69.2924L69.2528 13.5139Z" fill="#22202A"/>
<path d="M0.238403 27.618V15.2217H2.54284V27.618H0.238403Z" fill="#22202A"/>
<path d="M11.0454 27.6188V23.0498C11.0454 21.7387 10.3303 20.7055 8.93969 20.7055C7.54905 20.7055 6.71468 21.8183 6.71468 23.169V27.6188H4.56915V18.878H6.516L6.67496 20.0699C7.54905 19.196 8.4629 18.7588 9.53566 18.7588C11.6017 18.7588 13.2307 20.3083 13.2307 23.0498V27.6589H11.0852L11.0454 27.6188Z" fill="#22202A"/>
<path d="M21.495 27.6188V23.0498C21.495 21.7387 20.7798 20.7055 19.3892 20.7055C17.9986 20.7055 17.1642 21.8183 17.1642 23.169V27.6188H15.0187V18.878H16.9655L17.1245 20.0699C17.9986 19.196 18.9124 18.7588 19.9852 18.7588C22.0512 18.7588 23.6803 20.3083 23.6803 23.0498V27.6589H21.5347L21.495 27.6188Z" fill="#22202A"/>
<path d="M34.2092 23.2472C34.2092 25.7509 32.5007 27.8167 29.64 27.8167C26.7793 27.8167 25.1106 25.7904 25.1106 23.2472C25.1106 20.7046 26.8588 18.6782 29.64 18.6782C32.4213 18.6782 34.2092 20.7441 34.2092 23.2472ZM27.2561 23.2472C27.2561 24.5584 28.0508 25.83 29.64 25.83C31.2293 25.83 32.024 24.5985 32.024 23.2472C32.024 21.8965 31.1102 20.665 29.64 20.665C28.17 20.665 27.2561 21.9361 27.2561 23.2472Z" fill="#22202A"/>
<path d="M44.5793 18.8765L40.8446 27.6574H38.5003L34.7654 18.8765H37.1095L38.3014 21.7767L39.6527 25.4718L40.9638 21.8168L42.1558 18.8765H44.4996H44.5793Z" fill="#22202A"/>
<path d="M52.5258 18.8778H54.5917V27.6187H52.5654L52.4462 26.3471C51.9694 27.3803 50.5786 27.857 49.625 27.8966C47.0428 27.8966 45.1357 26.3075 45.1357 23.248C45.1357 20.1889 47.1219 18.6394 49.7047 18.679C50.8571 18.679 52.0089 19.2354 52.4857 20.1093L52.5654 18.9174L52.5258 18.8778ZM47.2812 23.248C47.2812 24.9167 48.4331 25.9103 49.8634 25.9103C53.2805 25.9103 53.2805 20.6257 49.8634 20.6257C46.4468 20.6257 47.2812 21.6193 47.2812 23.248Z" fill="#22202A"/>
<path d="M59.1212 16.4136V18.8772H61.5446V20.7442H59.1212V24.5189C59.1212 25.3533 59.598 25.7505 60.2736 25.7505C60.9487 25.7505 60.9887 25.6313 61.3063 25.4725L61.9022 27.3C61.2667 27.5384 60.7504 27.6576 60.1143 27.6576C58.2072 27.7372 56.9756 26.6645 56.9756 24.4794V20.7047H55.3465V18.8371H56.9756V16.5724L59.1212 16.334V16.4136Z" fill="#22202A"/>
<path d="M71.8356 23.2472C71.8356 25.7509 70.1268 27.8167 67.2661 27.8167C64.4054 27.8167 62.7366 25.7904 62.7366 23.2472C62.7366 20.7046 64.485 18.6782 67.2661 18.6782C70.0477 18.6782 71.8356 20.7441 71.8356 23.2472ZM64.8822 23.2472C64.8822 24.5584 65.677 25.83 67.2661 25.83C68.8557 25.83 69.65 24.5985 69.65 23.2472C69.65 21.8965 68.7365 20.665 67.2661 20.665C65.7962 20.665 64.8822 21.9361 64.8822 23.2472Z" fill="#22202A"/>
<path d="M75.3318 18.8776L75.4905 19.8707C76.1661 18.7979 77.0801 18.6392 77.9541 18.6392C78.828 18.6392 79.742 18.9967 80.2188 19.4735L79.2257 21.3406C78.7884 20.983 78.3913 20.7847 77.6761 20.7847C76.5237 20.7847 75.4905 21.3807 75.4905 23.0093V27.6184H73.345V18.8776H75.3318Z" fill="#22202A"/>
<path d="M86.6949 21.2214C86.0594 20.6254 85.3838 20.4271 84.5494 20.4271C83.715 20.4271 82.9603 20.7446 82.9603 21.301C82.9603 21.8574 83.4766 22.175 84.5895 22.2546C86.2181 22.3738 88.3241 22.7314 88.3241 25.0357C88.3241 27.3405 87.0525 27.8964 84.5494 27.8964C82.0463 27.8964 81.7683 27.658 80.4967 26.3468L81.5695 24.7973C82.2055 25.4729 83.5958 25.9892 84.5895 26.0293C85.4238 26.0293 86.1786 25.6316 86.1786 24.9961C86.1786 24.3606 85.7018 24.1617 84.4302 24.0821C82.8015 23.9629 80.8148 23.3669 80.8148 21.3807C80.8148 19.3939 82.9207 18.6392 84.5098 18.6392C86.0989 18.6392 86.8938 18.9171 87.927 19.791L86.735 21.2214H86.6949Z" fill="#22202A"/>
<path d="M6.079 38.0275H2.5826V41.683H0.238403V29.2866C2.18525 29.2866 4.13215 29.2866 6.079 29.2866C12.158 29.2866 12.158 38.0676 6.079 38.0676V38.0275ZM2.5826 35.882H6.079C9.05889 35.882 9.05889 31.4717 6.079 31.4717H2.5826V35.882Z" fill="#22202A"/>
<path d="M13.6679 32.943L13.8268 33.9361C14.5022 32.8633 15.4161 32.7046 16.2902 32.7046C17.1643 32.7046 18.0781 33.0622 18.5549 33.539L17.5616 35.406C17.1245 35.0484 16.7272 34.8501 16.0121 34.8501C14.8598 34.8501 13.8268 35.4461 13.8268 37.0748V41.6838H11.6812V32.943H13.6679Z" fill="#22202A"/>
<path d="M28.0508 37.3122C28.0508 39.8153 26.3423 41.8817 23.4816 41.8817C20.6209 41.8817 18.9522 39.8553 18.9522 37.3122C18.9522 34.7695 20.7004 32.7432 23.4816 32.7432C26.2628 32.7432 28.0508 34.809 28.0508 37.3122ZM21.1374 37.3122C21.1374 38.6233 21.9321 39.8949 23.5213 39.8949C25.1106 39.8949 25.9053 38.6634 25.9053 37.3122C25.9053 35.9614 24.9915 34.7299 23.5213 34.7299C22.0513 34.7299 21.1374 36.001 21.1374 37.3122Z" fill="#22202A"/>
<path d="M36.3945 32.0684L37.9839 33.2604L36.9903 34.4919C37.6659 35.2466 37.9043 36.1211 37.9043 37.0746C37.9043 38.0282 37.5071 39.6969 36.0766 40.3325C37.5467 41.0477 37.8647 42.1204 37.8647 43.2327C37.8647 45.6567 36.0369 47.1266 33.494 47.1266C30.9512 47.1266 29.044 45.5771 29.044 43.2327H31.1896C31.1896 44.3851 32.2226 45.1003 33.494 45.1003C34.7654 45.1003 35.719 44.4247 35.719 43.2327C35.719 42.0408 34.5668 41.4849 33.494 41.4849C30.7525 41.4849 29.044 39.8161 29.044 37.0746C29.044 34.3331 31.0307 32.6243 33.494 32.6243C35.9574 32.6243 34.8846 32.7039 35.4806 33.1011L36.3547 31.9888L36.3945 32.0684ZM31.2293 37.0746C31.2293 38.5841 32.2623 39.4981 33.5338 39.4981C34.8052 39.4981 35.7985 38.5841 35.7985 37.0746C35.7985 35.5646 34.7654 34.6111 33.5338 34.6111C32.3021 34.6111 31.2293 35.5646 31.2293 37.0746Z" fill="#22202A"/>
<path d="M41.3214 32.943L41.4801 33.9361C42.1557 32.8633 43.0692 32.7046 43.9437 32.7046C44.8176 32.7046 45.7316 33.0622 46.2084 33.539L45.2148 35.406C44.778 35.0484 44.3804 34.8501 43.6652 34.8501C42.5133 34.8501 41.4801 35.4461 41.4801 37.0748V41.6838H39.3346V32.943H41.3214Z" fill="#22202A"/>
<path d="M53.9561 32.9427H56.022V41.6836H53.9957L53.8765 40.412C53.3997 41.4452 52.0089 41.922 51.0554 41.9615C48.4731 41.9615 46.566 40.3724 46.566 37.3129C46.566 34.2539 48.5523 32.7043 51.135 32.7439C52.2874 32.7439 53.4393 33.3003 53.9161 34.1743L53.9957 32.9823L53.9561 32.9427ZM48.7115 37.3129C48.7115 38.9816 49.8634 39.9753 51.2938 39.9753C54.7109 39.9753 54.7109 34.6906 51.2938 34.6906C47.8772 34.6906 48.7115 35.6842 48.7115 37.3129Z" fill="#22202A"/>
<path d="M63.6506 41.6838V36.9956C63.6506 35.8432 63.0546 34.8105 61.8626 34.8105C60.6707 34.8105 59.9951 35.8432 59.9951 36.9956V41.6838H57.8495V32.9429H59.8363L59.9951 34.0157C60.4719 33.1418 61.4655 32.8237 62.2999 32.8237C63.1342 32.8237 64.4053 33.2609 64.8821 34.4529C65.6769 33.2209 66.67 32.8633 67.8224 32.8633C70.286 32.8633 71.5175 34.3733 71.5175 36.9956V41.7239H69.372V36.9956C69.372 35.8432 68.8952 34.8501 67.7428 34.8501C66.5909 34.8501 65.8357 35.8432 65.8357 36.9956V41.6838H63.6901H63.6506Z" fill="#22202A"/>
<path fill-rule="evenodd" clip-rule="evenodd" d="M108.19 53.0459C107.912 52.8075 108.389 51.8143 109.263 50.8212C110.137 49.8276 111.051 49.2717 111.368 49.5101C111.647 49.7484 111.17 50.7811 110.296 51.7347C109.422 52.7283 108.508 53.2842 108.19 53.0459ZM103.343 51.0195C102.548 50.5427 102.429 49.3112 103.065 48.1989C103.7 47.0861 104.853 46.6093 105.647 47.0861C106.442 47.5628 106.561 48.7949 105.926 49.9072C105.29 51.0195 104.138 51.4963 103.343 51.0195ZM94.4427 30.0411C93.9263 29.7631 93.8868 28.9683 94.2839 28.2932C94.6811 27.6176 95.3963 27.2996 95.9131 27.578C96.4295 27.856 96.469 28.6508 96.0719 29.3259C95.6747 30.0015 94.9596 30.3195 94.4427 30.0411ZM82.7615 41.8019C83.2383 40.9279 84.4703 40.6495 85.503 41.2059C86.5362 41.7623 86.9734 42.9543 86.4566 43.8282C85.9402 44.7021 84.7483 44.9806 83.7151 44.4242C82.6824 43.8678 82.2452 42.6758 82.7615 41.8019ZM116.415 38.6232C116.057 38.504 116.097 37.312 116.494 35.9613C116.892 34.6106 117.527 33.6169 117.885 33.6966C118.242 33.8158 118.203 35.0077 117.805 36.3584C117.408 37.7097 116.772 38.7028 116.415 38.6232ZM111.011 26.4256C110.336 26.1872 109.779 25.8296 109.303 25.3133C108.746 24.7173 108.19 23.9621 107.515 23.7237C106.243 23.2469 105.369 24.3993 105.17 25.5913C104.932 26.982 105.091 28.2932 105.727 29.5247C105.846 29.7235 106.164 30.2399 106.72 30.9946C108.826 33.8954 109.7 37.9876 108.587 41.4839C108.389 42.1595 108.269 42.5967 108.23 42.8746C108.111 44.2254 108.389 45.497 109.064 46.7285C109.581 47.6029 110.773 48.6356 111.806 48.1193C113.594 47.2053 113.077 43.9474 112.441 42.5566C112.322 42.3182 112.005 41.8019 111.448 41.0471C109.064 37.7097 108.309 33.339 109.978 29.4055C110.852 27.4188 112.918 26.6245 114.786 27.9356C115.421 28.3723 115.978 28.8892 116.454 29.4852C117.567 30.7963 119.235 30.4783 119.673 28.77C120.149 26.982 119.673 24.7569 118.441 23.3661C117.726 22.5718 116.613 22.095 115.779 23.0085C115.66 23.1678 115.461 23.5254 115.183 24.1213C114.388 25.9093 113.077 27.1012 111.011 26.3861V26.4256ZM78.7885 32.6238C77.0401 33.6169 77.0802 35.8421 78.6297 37.034C79.5833 37.7888 80.7352 37.8289 81.8876 37.4713C84.5895 36.6369 87.7677 37.6696 89.1981 40.1727C89.9133 41.4443 90.3505 42.5967 90.1121 43.987C89.8341 45.6161 88.8806 46.8877 87.331 47.7221C86.8938 47.9605 86.2182 48.1588 85.7414 48.4373C84.4703 49.2316 84.0727 50.702 84.7878 51.9731C85.4239 53.0859 86.735 53.6819 88.0061 53.4831C89.5161 53.2842 90.6284 52.0132 90.39 50.4636C90.3109 50.0264 89.9533 49.3508 89.8341 48.874C89.1981 46.2918 90.7081 43.7887 93.1315 42.8746C93.6484 42.6758 93.9659 42.5171 94.1252 42.4374C95.5155 41.5635 95.7939 39.9744 94.8799 38.6632C93.9659 37.3521 92.5356 37.0341 90.986 37.5108C88.2445 38.3452 85.2646 37.3521 83.6755 34.9682C83.3575 34.4914 83.1191 33.7762 82.7219 33.339C81.7288 32.2662 80.0601 31.9482 78.7489 32.7034V32.6238H78.7885ZM104.336 22.8102C103.065 23.3661 101.555 22.7306 100.959 21.3798C100.363 20.0286 100.879 18.4791 102.151 17.8831C103.422 17.2871 104.932 17.9627 105.528 19.3134C106.124 20.6647 105.608 22.2142 104.336 22.8102ZM101.793 39.2592C100.522 39.8151 99.0122 39.1796 98.4162 37.8289C97.8202 36.4776 98.3366 34.9281 99.6082 34.3321C100.879 33.7762 102.389 34.4117 102.985 35.7625C103.581 37.1137 103.065 38.6632 101.793 39.2592ZM115.938 15.38C115.58 15.6184 114.746 14.9032 113.991 13.7909C113.236 12.6785 112.958 11.6058 113.276 11.4069C113.633 11.1686 114.468 11.8837 115.223 12.9961C115.978 14.1089 116.256 15.1817 115.938 15.38ZM76.6825 10.5726C76.9209 9.61901 78.1925 9.10266 79.5037 9.42018C80.8148 9.7382 81.6492 10.8505 81.4108 11.8041C81.1724 12.7577 79.9008 13.2745 78.5896 12.9565C77.2785 12.6385 76.4441 11.5261 76.6825 10.5726ZM96.1911 12.7577C93.7275 12.7577 90.6685 10.8505 91.9396 7.9107C92.0989 7.55312 92.178 7.27465 92.178 7.07633C92.178 6.28152 91.8204 5.76518 91.0657 5.48672C90.0324 5.12913 88.9201 5.12913 87.6886 5.48672C86.4566 5.88438 84.9471 6.71875 84.6291 8.0299C84.311 9.49981 85.9402 10.0958 87.1718 10.0958C90.0725 10.0958 93.7676 11.2081 92.4564 14.9828C92.2972 15.4596 92.218 15.7776 92.2576 16.016C92.2972 16.612 92.6152 17.0091 93.2112 17.2871C95.1579 18.1615 98.0186 17.3667 99.3297 15.7376C100.283 14.5857 99.8065 13.2344 98.3366 12.8373C97.661 12.6385 96.8667 12.6785 96.1515 12.6385V12.7577H96.1911ZM101.475 3.42082C101.674 3.06329 102.786 3.26191 103.939 3.89761C105.091 4.53315 105.926 5.2884 105.766 5.64599C105.608 6.00357 104.455 5.80474 103.303 5.1692C102.151 4.53315 101.316 3.77841 101.475 3.42082ZM109.819 12.3605C106.561 11.9634 103.184 10.0162 102.071 6.71875C101.873 6.12277 101.833 4.97037 101.475 4.37439C100.721 3.2222 99.6477 2.46731 98.257 2.22892C96.9062 1.95076 95.0387 2.38783 94.4828 3.81797C93.7676 5.76518 95.6347 7.47348 97.2638 8.06946C97.5418 8.1491 98.0586 8.2683 98.8134 8.34742C102.032 8.705 105.766 10.9302 106.481 14.3072C106.68 15.1416 106.76 15.5392 106.76 15.5392C107.515 17.8435 110.336 19.1547 112.601 18.2807C114.468 17.5656 114.547 15.42 113.355 14.0688C112.799 13.4333 112.163 12.9961 111.409 12.7181C111.13 12.5989 110.574 12.5193 109.779 12.4001H109.819V12.3605ZM74.855 3.103C74.7358 2.78513 75.6498 2.22892 76.8017 1.83156C77.9937 1.43426 79.0269 1.39455 79.1065 1.71237C79.2257 2.03024 78.3117 2.5865 77.1593 2.98381C75.9673 3.38126 74.9346 3.42082 74.855 3.103ZM85.4634 0.162821C85.503 -0.234481 86.6554 -0.393391 88.0061 -0.194766C89.3573 0.0039109 90.4301 0.480693 90.3505 0.877995C90.3109 1.27535 89.1585 1.43426 87.8078 1.23559C86.4566 1.03696 85.3838 0.560175 85.4634 0.162821Z" fill="url(#paint0_linear_4_2610)"/>
<path d="M2.62231 48.0806L4.60892 52.4908H4.01294L3.57587 51.5372H1.03305L0.595979 52.4908H0L1.98661 48.0806H2.62231ZM2.30443 48.6365L1.27144 51.0204H3.3772L2.3442 48.6365H2.30443Z" fill="#22202A"/>
<path d="M5.20493 49.3521H5.68171V49.8684C5.95982 49.5108 6.3174 49.312 6.79419 49.312C7.27097 49.312 7.50936 49.4312 7.78747 49.7097C8.02586 49.9876 8.18482 50.3057 8.18482 50.7824V52.4907H7.66827V50.7824C7.66827 50.4644 7.58884 50.226 7.42988 50.0673C7.27097 49.908 7.03258 49.7888 6.75447 49.7888C6.47631 49.7888 6.23792 49.908 6.07901 50.0673C5.88034 50.2656 5.8009 50.504 5.8009 50.7824V52.4512H5.28436V49.312L5.20493 49.3521Z" fill="#22202A"/>
<path d="M10.7673 48.1195C10.8865 48.08 11.0057 48.08 11.1249 48.1195C11.2441 48.1591 11.2839 48.2783 11.2839 48.4375C11.2839 48.5963 11.2441 48.6759 11.1249 48.7551C11.0057 48.7951 10.8865 48.7951 10.7673 48.7551C10.6481 48.7155 10.6084 48.5963 10.6084 48.4375C10.6084 48.2783 10.6481 48.1991 10.7673 48.1195ZM10.6481 52.4902H11.1647V49.351H10.6481V52.4902Z" fill="#22202A"/>
<path d="M12.1183 49.3521H12.595V49.8684C12.8731 49.5108 13.2307 49.312 13.7075 49.312C14.1843 49.312 14.4227 49.4312 14.7008 49.7097C14.9392 49.9876 15.0982 50.3057 15.0982 50.7824V52.4907H14.5816V50.7824C14.5816 50.4644 14.5022 50.226 14.3432 50.0673C14.1843 49.908 13.9459 49.7888 13.6678 49.7888C13.3896 49.7888 13.1513 49.908 12.9923 50.0673C12.7937 50.2656 12.7142 50.504 12.7142 50.7824V52.4512H12.1977V49.312L12.1183 49.3521Z" fill="#22202A"/>
<path d="M16.0518 48.1195C16.1709 48.08 16.2901 48.08 16.4093 48.1195C16.5285 48.1591 16.5683 48.2783 16.5683 48.4375C16.5683 48.5963 16.5285 48.6759 16.4093 48.7551C16.2901 48.7951 16.1709 48.7951 16.0518 48.7551C15.9326 48.7155 15.8928 48.5963 15.8928 48.4375C15.8928 48.2783 15.9326 48.1991 16.0518 48.1195ZM15.9723 52.4902H16.4888V49.351H15.9723V52.4902Z" fill="#22202A"/>
<path d="M18.3165 49.3918H19.2701V49.8285H18.3165V51.4577C18.3165 51.8548 18.4754 52.0537 18.7933 52.0537C19.1111 52.0537 19.0714 52.0537 19.2303 51.9345L19.3893 52.3717C19.1906 52.4508 18.9919 52.5305 18.7933 52.5305C18.1178 52.5305 17.8 52.1729 17.8 51.4577V49.8285H17.1642V49.3918H17.8V48.5174H18.3165C18.3165 48.4778 18.3165 49.3918 18.3165 49.3918Z" fill="#22202A"/>
<path d="M20.0249 48.1195C20.1441 48.08 20.2633 48.08 20.3825 48.1195C20.5017 48.1591 20.5415 48.2783 20.5415 48.4375C20.5415 48.5963 20.5017 48.6759 20.3825 48.7551C20.2633 48.7951 20.1441 48.7951 20.0249 48.7551C19.9057 48.7155 19.866 48.5963 19.866 48.4375C19.866 48.2783 19.9057 48.1991 20.0249 48.1195ZM19.9455 52.4902H20.462V49.351H19.9455V52.4902Z" fill="#22202A"/>
<path d="M23.9584 52.4907V51.9343C23.8392 52.1331 23.6803 52.2919 23.4419 52.4111C23.2432 52.5303 23.0048 52.5704 22.7664 52.5704C22.2896 52.5704 21.932 52.4111 21.6142 52.1331C21.2964 51.8552 21.1772 51.4575 21.1772 50.9412C21.1772 50.4248 21.3361 50.0673 21.6539 49.7492C21.9718 49.4713 22.3294 49.312 22.8062 49.312C23.0446 49.312 23.283 49.3521 23.4816 49.4713C23.6803 49.5905 23.8392 49.7492 23.9584 49.9481V49.3916H24.4749V52.5303H23.9584V52.4907ZM22.8459 49.8289C22.528 49.8289 22.2499 49.9481 22.0512 50.1464C21.8526 50.3452 21.7334 50.6232 21.7334 50.9808C21.7334 51.3383 21.8526 51.6168 22.0512 51.8151C22.2499 52.014 22.528 52.1331 22.8459 52.1331C23.1638 52.1331 23.2432 52.0936 23.4022 52.0139C23.5611 51.9343 23.6803 51.8151 23.7597 51.6959C23.8392 51.5767 23.9187 51.418 23.9584 51.2592C23.9584 51.0999 23.9584 50.9412 23.9584 50.7824C23.9584 50.6232 23.8789 50.4644 23.7597 50.3452C23.6803 50.226 23.5611 50.1068 23.4022 50.0272C23.2432 49.9481 23.0446 49.908 22.8459 49.908V49.8289Z" fill="#22202A"/>
<path d="M26.3025 49.3918H27.2561V49.8285H26.3025V51.4577C26.3025 51.8548 26.4615 52.0537 26.7793 52.0537C27.0972 52.0537 27.0574 52.0537 27.2164 51.9345L27.3753 52.3717C27.1766 52.4508 26.978 52.5305 26.7793 52.5305C26.1039 52.5305 25.786 52.1729 25.786 51.4577V49.8285H25.1503V49.3918H25.786V48.5174H26.3025C26.3025 48.4778 26.3025 49.3918 26.3025 49.3918Z" fill="#22202A"/>
<path d="M28.011 48.1195C28.1302 48.08 28.2494 48.08 28.3686 48.1195C28.4878 48.1591 28.5276 48.2783 28.5276 48.4375C28.5276 48.5963 28.4878 48.6759 28.3686 48.7551C28.2494 48.7951 28.1302 48.7951 28.011 48.7551C27.8918 48.7155 27.8521 48.5963 27.8521 48.4375C27.8521 48.2783 27.8918 48.1991 28.011 48.1195ZM27.9316 52.4902H28.4481V49.351H27.9316V52.4902Z" fill="#22202A"/>
<path d="M29.6798 49.3511L30.1963 50.5831L30.7128 51.9338L31.2293 50.5831L31.7458 49.3511H32.3021L30.991 52.4902H30.4347L29.1235 49.3511H29.6798Z" fill="#22202A"/>
<path d="M35.5999 51.9744C35.4409 52.1727 35.2423 52.2919 35.0039 52.3715C34.7655 52.4512 34.5271 52.5303 34.2489 52.5303C33.7722 52.5303 33.3749 52.3715 33.057 52.0936C32.7392 51.8151 32.62 51.418 32.62 50.9016C32.62 50.3848 32.7789 50.0272 33.057 49.7492C33.3749 49.4312 33.7324 49.312 34.2092 49.312C34.686 49.312 35.1231 49.4713 35.4012 49.7888C35.6793 50.1068 35.7985 50.544 35.7588 51.14H33.0967C33.0967 51.418 33.2557 51.6564 33.4543 51.8151C33.653 51.9744 33.9311 52.0535 34.2092 52.0535C34.4873 52.0535 34.5668 52.0535 34.7655 51.9343C34.9641 51.8552 35.0833 51.7756 35.2025 51.6564L35.5601 51.9744H35.5999ZM35.282 50.7028C35.282 50.3848 35.1628 50.1865 34.9641 50.0272C34.7655 49.8684 34.5271 49.7888 34.2092 49.7888C33.8914 49.7888 33.6927 49.8684 33.4941 50.0272C33.2954 50.1865 33.1762 50.4248 33.1365 50.7028H35.282Z" fill="#22202A"/>
<path d="M38.6195 49.9476C38.7387 49.7493 38.8974 49.59 39.0962 49.4708C39.3346 49.3516 39.5335 49.3121 39.7719 49.3121C40.2486 49.3121 40.6062 49.4708 40.9237 49.7493C41.2022 50.0273 41.361 50.4244 41.361 50.9413C41.361 51.4576 41.2022 51.8548 40.9237 52.1332C40.6458 52.4112 40.2486 52.5699 39.7719 52.5699C39.2951 52.5699 39.2951 52.5304 39.0962 52.4112C38.8974 52.292 38.7387 52.1332 38.6195 51.9344V52.4908H38.1031V48.0806H38.6195V49.9476ZM38.977 50.1069C38.7782 50.3052 38.659 50.5837 38.659 50.9012C38.659 51.2192 38.7782 51.4972 38.977 51.7356C39.1759 51.9344 39.4538 52.0536 39.7719 52.0536C40.0894 52.0536 40.3678 51.9344 40.5662 51.7356C40.765 51.5372 40.8842 51.2588 40.8842 50.9012C40.8842 50.5436 40.765 50.2657 40.5662 50.0668C40.3678 49.8685 40.0894 49.7493 39.7719 49.7493C39.4538 49.7493 39.2154 49.8685 38.977 50.0668V50.1069Z" fill="#22202A"/>
<path d="M42.871 53.9601H42.3146L42.9501 52.4501L41.679 49.3911H42.275L42.871 51.0198L43.2286 51.8942L43.5461 51.0198L44.2217 49.3911H44.7781L42.7913 53.9997L42.871 53.9601Z" fill="#22202A"/>
<path d="M51.5723 51.656L52.0886 52.1724L51.413 52.848L50.8571 52.2915C50.4995 52.4904 50.0623 52.5695 49.5855 52.5695C48.1551 52.5695 47.2016 51.6956 47.2016 50.2652C47.2016 48.8349 48.1551 47.9609 49.5855 47.9609C51.0158 47.9609 51.9694 48.8349 51.9694 50.2652C51.9694 51.6956 51.8106 51.2583 51.5723 51.656ZM49.5855 48.8349C48.7511 48.8349 48.1551 49.4308 48.1551 50.2652C48.1551 51.0996 48.7511 51.6956 49.5855 51.6956C50.4199 51.6956 51.0158 51.06 50.9763 50.2652C50.9763 49.4308 50.4199 48.8349 49.5855 48.8349Z" fill="#22202A"/>
<path d="M53.4393 49.3521V50.9808C53.4393 51.4575 53.6381 51.6959 54.0754 51.6959C54.5121 51.6959 54.7905 51.3383 54.7905 50.9412V49.312H55.704V52.4512H54.8697V52.0535C54.5521 52.4111 54.1946 52.5303 53.837 52.5303C53.1218 52.5303 52.5258 52.2128 52.5258 51.0208V49.3521H53.4393Z" fill="#22202A"/>
<path d="M57.2937 49.3912L57.3728 49.7487C57.5716 49.4703 57.8496 49.3511 58.2072 49.3511C58.5647 49.3511 58.7636 49.4307 58.9624 49.6295L58.5647 50.3447C58.406 50.2255 58.2472 50.1854 58.0484 50.1854C57.6512 50.1854 57.3332 50.4238 57.3332 50.9006V52.5298H56.4192V49.4307H57.2536L57.2937 49.3912Z" fill="#22202A"/>
<path d="M61.6638 49.3521H62.4982V52.4907H61.6638V52.0936C61.3859 52.4111 60.9486 52.5303 60.6707 52.5704C59.7171 52.5704 59.0415 51.9744 59.0415 50.9412C59.0415 49.908 59.7567 49.312 60.6707 49.312C61.0678 49.312 61.4254 49.4713 61.5847 49.7492V49.3916L61.6638 49.3521ZM59.9951 50.9412C59.9951 51.4575 60.3527 51.7756 60.8294 51.7756C61.3062 51.7756 61.6638 51.3784 61.6638 50.9808C61.6638 50.5836 61.3859 50.1068 60.8294 50.1068C60.2735 50.1068 59.9951 50.4248 59.9951 50.9412Z" fill="#22202A"/>
<path d="M65.5182 52.4907V50.8616C65.5182 50.3848 65.3194 50.1464 64.8821 50.1464C64.4454 50.1464 64.167 50.504 64.167 50.9016V52.5303H63.2535V49.3916H64.0878V49.7888C64.4054 49.4312 64.7629 49.312 65.1205 49.312C65.8357 49.312 66.4317 49.63 66.4317 50.8616V52.5303H65.5182V52.4907Z" fill="#22202A"/>
<path d="M68.1404 48.5575C68.1404 49.2331 67.1072 49.2331 67.1072 48.5575C67.1072 47.8819 68.1404 47.8819 68.1404 48.5575ZM67.1869 49.3523V52.491H68.1004V49.3523H67.1869Z" fill="#22202A"/>
<path d="M69.7296 49.3521V50.9808C69.7296 51.4575 69.9284 51.6959 70.3651 51.6959C70.8023 51.6959 71.0803 51.3383 71.0803 50.9412V49.312H71.9943V52.4512H71.1599V52.0535C70.8419 52.4111 70.4843 52.5303 70.1267 52.5303C69.4115 52.5303 68.8156 52.2128 68.8156 51.0208V49.3521H69.7296Z" fill="#22202A"/>
<path d="M74.7754 52.4903V50.8215C74.7754 50.4239 74.6166 50.1459 74.2195 50.1459C73.8218 50.1459 73.6631 50.4639 73.6631 50.8215V52.4903H72.7491V49.3511H73.5439L73.6235 49.7087C73.8218 49.3511 74.1794 49.272 74.4579 49.272C74.7358 49.272 75.173 49.3912 75.3714 49.868C75.6498 49.4307 75.9278 49.272 76.4046 49.272C76.8814 49.272 77.6361 49.5895 77.6361 50.7814V52.4903H76.7226V50.8215C76.7226 50.4239 76.6034 50.1855 76.2458 50.1855C75.8882 50.1855 75.6894 50.5035 75.6894 50.8611V52.5298H74.7754V52.4903Z" fill="#22202A"/>
<defs>
<linearGradient id="paint0_linear_4_2610" x1="74.855" y1="26.6245" x2="119.871" y2="26.6245" gradientUnits="userSpaceOnUse">
<stop stop-color="#C1202B"/>
<stop offset="0.3" stop-color="#D32635"/>
<stop offset="0.7" stop-color="#E02A3C"/>
<stop offset="1" stop-color="#E52C3F"/>
</linearGradient>
</defs>
</svg>
