<svg width="132" height="44" viewBox="0 0 132 44" fill="none" xmlns="http://www.w3.org/2000/svg">
<path d="M89.6735 1.08286C89.9527 1.32507 90.0917 1.668 90.0917 2.11164C90.0917 2.57822 89.9514 2.94027 89.6697 3.19778C89.3892 3.4553 88.994 3.58532 88.4854 3.58532H87.6886V4.73138H86.7822V0.718262H88.4854C88.9979 0.718262 89.3931 0.839367 89.6722 1.08286H89.6735ZM89.0285 2.65343C89.1636 2.53742 89.2324 2.36532 89.2324 2.14095C89.2324 1.91659 89.1649 1.75213 89.0285 1.63868C88.8933 1.52649 88.697 1.46913 88.4408 1.46913H87.6899V2.82808H88.4408C88.697 2.82808 88.8933 2.76944 89.0285 2.65343Z" fill="#1B1B1B"/>
<path d="M96.2142 0.926511C96.5431 1.10626 96.8018 1.35358 96.9905 1.66845C97.1792 1.98333 97.2748 2.33391 97.2748 2.72018C97.2748 3.10645 97.1805 3.45829 96.9905 3.77445C96.8006 4.09188 96.5418 4.34047 96.2142 4.52277C95.8853 4.7038 95.5206 4.79558 95.1191 4.79558C94.7175 4.79558 94.3529 4.70507 94.024 4.52277C93.6951 4.34175 93.4363 4.09315 93.2477 3.777C93.059 3.46212 92.9634 3.109 92.9634 2.7189C92.9634 2.32881 93.0577 1.98206 93.2477 1.66718C93.4363 1.3523 93.6951 1.10498 94.0215 0.925234C94.3478 0.745485 94.7137 0.65625 95.1191 0.65625C95.5245 0.65625 95.8853 0.745485 96.2142 0.925234V0.926511ZM94.511 1.61618C94.3198 1.72837 94.1694 1.88262 94.0584 2.07767C93.9475 2.27271 93.8927 2.48689 93.8927 2.72018C93.8927 2.95347 93.9488 3.17273 94.0623 3.36778C94.1757 3.56283 94.3261 3.71708 94.5148 3.83182C94.7035 3.94655 94.9087 4.00392 95.1306 4.00392C95.3524 4.00392 95.5551 3.94783 95.7412 3.83437C95.9273 3.72091 96.0739 3.56665 96.1823 3.37033C96.2919 3.17401 96.3455 2.95729 96.3455 2.72018C96.3455 2.48306 96.2907 2.27271 96.1823 2.07767C96.0739 1.88262 95.926 1.72837 95.7412 1.61618C95.5563 1.504 95.3524 1.44664 95.1306 1.44664C94.9087 1.44664 94.7022 1.50272 94.511 1.61618Z" fill="#1B1B1B"/>
<path d="M103.249 0.975178C103.57 1.14473 103.819 1.38185 103.997 1.68653C104.174 1.98993 104.264 2.33668 104.264 2.72678C104.264 3.11687 104.173 3.46362 103.991 3.76702C103.81 4.07043 103.556 4.30755 103.231 4.47837C102.906 4.64792 102.535 4.73334 102.119 4.73334H100.451V0.720215H102.154C102.563 0.720215 102.928 0.805628 103.249 0.975178ZM102.776 3.81292C102.953 3.70839 103.092 3.56178 103.192 3.37438C103.291 3.18699 103.341 2.97281 103.341 2.73187C103.341 2.49093 103.288 2.27549 103.183 2.08427C103.077 1.89305 102.934 1.74516 102.753 1.63935C102.571 1.53482 102.365 1.48128 102.136 1.48128H101.357V3.96972H102.177C102.399 3.96972 102.599 3.91746 102.776 3.81165V3.81292Z" fill="#1B1B1B"/>
<path d="M109.758 1.58814C109.573 1.49508 109.385 1.44791 109.199 1.44791C108.974 1.44791 108.767 1.50273 108.58 1.61364C108.392 1.72455 108.246 1.87497 108.138 2.0662C108.031 2.25742 107.978 2.46904 107.978 2.70233C107.978 2.93562 108.031 3.14852 108.138 3.34101C108.246 3.53351 108.392 3.68649 108.58 3.79994C108.767 3.9134 108.974 3.9695 109.199 3.9695C109.379 3.9695 109.561 3.92615 109.747 3.84074C109.932 3.75533 110.098 3.63932 110.243 3.49399L110.776 4.07276C110.562 4.29458 110.311 4.4705 110.023 4.60053C109.735 4.73057 109.444 4.79558 109.155 4.79558C108.761 4.79558 108.404 4.70507 108.082 4.52277C107.761 4.34175 107.509 4.09188 107.325 3.77445C107.142 3.45702 107.05 3.1039 107.05 2.71381C107.05 2.32371 107.143 1.97823 107.33 1.66463C107.518 1.35102 107.775 1.10498 108.102 0.925234C108.428 0.745485 108.79 0.65625 109.188 0.65625C109.478 0.65625 109.765 0.716164 110.047 0.837272C110.33 0.957105 110.571 1.12156 110.77 1.3268L110.242 1.97441C110.104 1.80995 109.942 1.6812 109.758 1.58686V1.58814Z" fill="#1B1B1B"/>
<path d="M116.818 4.73334L116.503 3.95315H114.645L114.33 4.73334H113.396L115.139 0.720215H116.073L117.788 4.73334H116.819H116.818ZM114.944 3.22523H116.211L115.58 1.66613L114.944 3.22523Z" fill="#1B1B1B"/>
<path d="M122.75 1.53573C122.519 1.46179 122.321 1.42355 122.157 1.42355C121.993 1.42355 121.877 1.45287 121.785 1.50896C121.693 1.56506 121.647 1.65047 121.647 1.76137C121.647 1.90288 121.713 2.01124 121.845 2.08518C121.976 2.15912 122.18 2.23688 122.455 2.31719C122.731 2.39751 122.958 2.47782 123.135 2.55814C123.312 2.63845 123.465 2.75828 123.59 2.91891C123.716 3.07954 123.779 3.29116 123.779 3.55504C123.779 3.81893 123.711 4.03183 123.575 4.21667C123.44 4.40152 123.252 4.54303 123.016 4.63864C122.78 4.73425 122.51 4.78142 122.208 4.78142C121.883 4.78142 121.564 4.72405 121.251 4.60932C120.937 4.49459 120.666 4.33778 120.436 4.13891L120.797 3.39951C120.999 3.58309 121.233 3.72969 121.497 3.8406C121.761 3.95151 122.002 4.00633 122.22 4.00633C122.407 4.00633 122.552 3.97191 122.658 3.90307C122.764 3.83423 122.816 3.73479 122.816 3.60476C122.816 3.5015 122.78 3.41609 122.71 3.3498C122.639 3.28351 122.55 3.22869 122.441 3.18662C122.332 3.14455 122.183 3.09738 121.991 3.04384C121.716 2.96735 121.492 2.89086 121.318 2.81437C121.144 2.73789 120.994 2.62188 120.868 2.46508C120.742 2.30827 120.68 2.10048 120.68 1.84041C120.68 1.59947 120.745 1.38913 120.875 1.20683C121.005 1.02581 121.186 0.885575 121.419 0.788689C121.652 0.691803 121.924 0.64209 122.234 0.64209C122.509 0.64209 122.78 0.681609 123.048 0.761923C123.316 0.842236 123.553 0.949316 123.759 1.08317L123.41 1.83404C123.204 1.70783 122.984 1.60712 122.754 1.53319L122.75 1.53573Z" fill="#1B1B1B"/>
<path d="M126.598 0.720215H129.952V1.48893H128.726V4.73334H127.819V1.48893H126.598V0.720215Z" fill="#1B1B1B"/>
<path d="M37.1624 8.06525V21.419C37.1624 21.7848 36.8654 22.0819 36.4995 22.0819H33.6516C33.2857 22.0819 32.9887 21.7848 32.9887 21.419C32.9887 20.844 32.3066 20.5406 31.8808 20.9281C30.9171 21.8065 29.6486 22.2463 28.0768 22.2463C26.5049 22.2463 25.1702 21.7415 24.2154 20.7318C23.2605 19.7222 22.7825 18.353 22.7825 16.6256V8.06525C22.7825 7.69938 23.0795 7.40234 23.4454 7.40234H26.3214C26.6872 7.40234 26.9843 7.69938 26.9843 8.06525V15.4248C26.9843 16.3528 27.2303 17.0808 27.7211 17.6073C28.2119 18.135 28.885 18.3989 29.7404 18.3989C30.7412 18.3811 31.5315 18.0267 32.1141 17.3344C32.6954 16.6435 32.9874 15.7524 32.9874 14.6599V8.06525C32.9874 7.69938 33.2844 7.40234 33.6503 7.40234H36.4982C36.8641 7.40234 37.1611 7.69938 37.1611 8.06525H37.1624Z" fill="#1B1B1B"/>
<path d="M49.5629 21.0581C49.5629 20.8197 49.2798 20.6961 49.1052 20.8593C48.6947 21.2417 48.2103 21.5489 47.6532 21.7835C46.8704 22.1111 45.9704 22.2743 44.9518 22.2743C43.4055 22.2743 42.1778 21.8511 41.2676 21.0059C40.3574 20.1594 39.9036 19.0541 39.9036 17.6901C39.9036 16.326 40.3905 15.2297 41.3632 14.4559C42.3359 13.6833 43.714 13.2869 45.4975 13.269H49.2633C49.4137 13.269 49.5361 13.1466 49.5361 12.9962C49.5361 12.2135 49.2773 11.6092 48.7584 11.1809C48.2396 10.7538 47.4798 10.5396 46.4803 10.5396C45.3113 10.5396 44.0735 10.8532 42.7706 11.4817C42.406 11.6576 41.9662 11.497 41.7992 11.1273L41.2357 9.88309C40.9923 9.3464 41.2307 8.71154 41.7699 8.47315C42.5769 8.11747 43.3456 7.84211 44.0773 7.64579C45.0959 7.37298 46.2152 7.23657 47.4339 7.23657C49.3984 7.23657 50.9218 7.7006 52.0041 8.62867C53.0864 9.55674 53.6372 10.8481 53.655 12.5041L53.6805 21.2073C53.6818 21.6892 53.2917 22.0818 52.8085 22.0818H50.5865C50.0205 22.0818 49.5616 21.6229 49.5616 21.0569L49.5629 21.0581ZM48.3887 18.6436C49.0147 18.2319 49.3946 17.7156 49.5284 17.0922C49.5323 17.0718 49.5348 17.0501 49.5348 17.0284V16.0239C49.5348 15.8735 49.4124 15.7511 49.262 15.7511H46.233C45.4146 15.7511 44.8091 15.8837 44.419 16.1463C44.0276 16.4102 43.8326 16.8334 43.8326 17.4147C43.8326 17.996 44.0378 18.4295 44.447 18.766C44.8562 19.1026 45.4159 19.2708 46.1247 19.2708C46.9979 19.2708 47.7526 19.0618 48.39 18.6436H48.3887Z" fill="#1B1B1B"/>
<path d="M70.5064 8.76654C71.479 9.78512 71.966 11.1504 71.966 12.86V21.4089C71.966 21.7811 71.6639 22.0833 71.2916 22.0833H68.4373C68.0651 22.0833 67.763 21.7811 67.763 21.4089V14.0876C67.763 13.1596 67.5042 12.4278 66.9853 11.8911C66.4665 11.3544 65.7615 11.0854 64.8704 11.0854C63.834 11.1033 63.0143 11.4628 62.4151 12.1639C61.8147 12.8638 61.5151 13.76 61.5151 14.8512V21.4089C61.5151 21.7811 61.2129 22.0833 60.8407 22.0833H57.9864C57.6141 22.0833 57.312 21.7811 57.312 21.4089V8.07559C57.312 7.70335 57.6141 7.40121 57.9864 7.40121H60.8407C61.2129 7.40121 61.5151 7.70335 61.5151 8.07559C61.5151 8.65181 62.1946 8.96541 62.628 8.58552C63.6223 7.71227 64.9431 7.26353 66.5914 7.23804C68.2283 7.23804 69.5337 7.74796 70.5076 8.76654H70.5064Z" fill="#1B1B1B"/>
<path d="M84.4531 20.4535C84.5946 20.9532 84.3384 21.4771 83.8603 21.6786C83.5455 21.8111 83.214 21.9221 82.8673 22.0126C82.2031 22.1847 81.5338 22.2714 80.862 22.2714C79.4979 22.2714 78.3876 21.88 77.5334 21.0985C76.678 20.3171 76.251 19.1978 76.251 17.7419V11.9708C76.251 11.4061 75.7933 10.9472 75.2273 10.9472C74.6625 10.9472 74.2036 10.4895 74.2036 9.92348V9.077C74.2036 8.51226 74.6613 8.05332 75.2273 8.05332C75.792 8.05332 76.251 7.59567 76.251 7.02965V5.03711C76.251 4.47237 76.7086 4.01343 77.2746 4.01343H79.4036C79.9683 4.01343 80.4273 4.47109 80.4273 5.03711V7.02965C80.4273 7.59439 80.8849 8.05332 81.4509 8.05332H83.3887C83.9534 8.05332 84.4123 8.51099 84.4123 9.077V9.95025C84.4123 10.515 83.9547 10.9739 83.3887 10.9739H81.4509C80.8862 10.9739 80.4273 11.4316 80.4273 11.9976V17.0319C80.4273 18.1601 80.8722 18.7235 81.7645 18.7235C82.1062 18.7235 82.467 18.6687 82.8469 18.5578C83.3925 18.3985 83.9623 18.7133 84.1179 19.2602L84.4557 20.4522L84.4531 20.4535Z" fill="#1B1B1B"/>
<path d="M101.163 8.06525V21.419C101.163 21.7848 100.866 22.0819 100.5 22.0819H97.6523C97.2864 22.0819 96.9894 21.7848 96.9894 21.419C96.9894 20.844 96.3074 20.5406 95.8816 20.9281C94.9178 21.8065 93.6494 22.2463 92.0775 22.2463C90.5057 22.2463 89.1709 21.7415 88.2161 20.7318C87.2613 19.7222 86.7832 18.353 86.7832 16.6256V8.06525C86.7832 7.69938 87.0802 7.40234 87.4461 7.40234H90.3221C90.688 7.40234 90.985 7.69938 90.985 8.06525V15.4248C90.985 16.3528 91.2298 17.0808 91.7218 17.6073C92.2126 18.135 92.8858 18.3989 93.7412 18.3989C94.7419 18.3811 95.5323 18.0267 96.1149 17.3344C96.6975 16.6435 96.9881 15.7524 96.9881 14.6599V8.06525C96.9881 7.69938 97.2851 7.40234 97.651 7.40234H100.499C100.865 7.40234 101.162 7.69938 101.162 8.06525H101.163Z" fill="#1B1B1B"/>
<path d="M128.519 8.75266C129.473 9.76232 129.951 11.1315 129.951 12.8588V21.4154C129.951 21.7838 129.653 22.0821 129.285 22.0821H126.444C126.076 22.0821 125.778 21.7838 125.778 21.4154V14.0878C125.778 13.1419 125.523 12.405 125.014 11.8772C124.504 11.3495 123.813 11.0856 122.94 11.0856C121.939 11.1034 121.148 11.4591 120.566 12.15C119.984 12.841 119.693 13.7321 119.693 14.8246V21.4167C119.693 21.7851 119.395 22.0834 119.026 22.0834H116.185C115.816 22.0834 115.518 21.7851 115.518 21.4167V14.089C115.518 13.161 115.268 12.4292 114.767 11.8925C114.266 11.3558 113.58 11.0869 112.707 11.0869C111.706 11.1047 110.911 11.4604 110.319 12.1513C109.728 12.8423 109.433 13.7334 109.433 14.8259V21.418C109.433 21.7864 109.135 22.0847 108.767 22.0847H105.898C105.53 22.0847 105.231 21.7864 105.231 21.418V8.07191C105.231 7.70348 105.53 7.40518 105.898 7.40518H108.767C109.135 7.40518 109.433 7.70348 109.433 8.07191C109.433 8.64302 110.108 8.95408 110.536 8.57546C111.515 7.71113 112.803 7.26622 114.4 7.24072C115.636 7.24072 116.683 7.53648 117.539 8.128C118.069 8.49515 118.505 8.95408 118.846 9.50735C119.096 9.91147 119.688 9.93314 119.956 9.5405C120.357 8.95281 120.848 8.4773 121.428 8.11398C122.328 7.55051 123.406 7.25857 124.661 7.24072C126.28 7.24072 127.568 7.74555 128.522 8.75521L128.519 8.75266Z" fill="#1B1B1B"/>
<path d="M7.87817 41.2069V25.5802C7.87817 25.2423 8.15226 24.9683 8.49008 24.9683H9.31872C9.6183 24.9683 9.89621 25.1263 10.0492 25.3839L16.9995 37.0931C17.0772 37.2231 16.9829 37.3888 16.8312 37.3888H16.4832C16.3315 37.3888 16.2384 37.2244 16.3149 37.0943L23.162 25.4094C23.3226 25.1365 23.6145 24.9683 23.9319 24.9683H24.7861C25.0958 24.9683 25.347 25.2194 25.347 25.5292L25.3687 40.9647C25.3687 41.2069 25.1723 41.4045 24.9301 41.4045H23.6375C23.3493 41.4045 23.1161 41.1712 23.1161 40.8831L23.0944 28.7099C23.0944 28.6015 23.1824 28.5135 23.2894 28.5135C23.4411 28.5135 23.5355 28.6793 23.4577 28.8093L17.2978 39.1659C17.2086 39.3163 17.0467 39.4081 16.872 39.4081H16.3506C16.1785 39.4081 16.0192 39.3176 15.9312 39.171L9.72411 28.8106C9.64634 28.6805 9.7394 28.5148 9.89238 28.5148H9.93828C10.0466 28.5148 10.1333 28.6028 10.1333 28.7099V41.2082C10.1333 41.3165 10.0454 41.4032 9.93828 41.4032H8.07577C7.96741 41.4032 7.88072 41.3152 7.88072 41.2082L7.87817 41.2069Z" fill="#1B1B1B"/>
<path d="M31.0985 26.5643C30.6599 26.5643 30.2966 26.4228 30.0072 26.141C29.7178 25.8593 29.5725 25.5151 29.5725 25.1084C29.5725 24.7018 29.7166 24.3333 30.0072 24.0516C30.2966 23.7699 30.6612 23.6296 31.0985 23.6296C31.5357 23.6296 31.9003 23.7673 32.1897 24.0401C32.4791 24.3142 32.6244 24.6546 32.6244 25.0613C32.6244 25.4679 32.4829 25.8402 32.2012 26.1296C31.9194 26.4189 31.551 26.5643 31.0972 26.5643H31.0985ZM29.9715 40.4241V29.9362C29.9715 29.3956 30.4088 28.9584 30.9493 28.9584H31.2476C31.7881 28.9584 32.2254 29.3956 32.2254 29.9362V40.4241C32.2254 40.9646 31.7881 41.4019 31.2476 41.4019H30.9493C30.4088 41.4019 29.9715 40.9646 29.9715 40.4241Z" fill="#1B1B1B"/>
<path d="M43.1677 28.8408C44.185 28.8408 45.0812 29.0371 45.8563 29.4272C46.6314 29.8186 47.2369 30.4127 47.6754 31.212C48.114 32.01 48.3332 33.0197 48.3332 34.2409V40.847C48.3332 41.153 48.0846 41.4016 47.7787 41.4016H46.6811C46.3496 41.4016 46.0806 41.1326 46.0806 40.8011V34.4997C46.0806 33.295 45.7874 32.3873 45.1997 31.7767C44.6133 31.1661 43.7872 30.8614 42.7228 30.8614C41.9247 30.8614 41.2274 31.0182 40.6333 31.3305C40.038 31.6441 39.5803 32.1056 39.2604 32.7163C38.9391 33.3269 38.7798 34.0867 38.7798 34.9931V40.3703C38.7798 40.9401 38.317 41.4029 37.7472 41.4029H37.496C36.9606 41.4029 36.5259 40.9681 36.5259 40.4327V30.0787C36.5259 29.4604 37.0269 28.9594 37.6452 28.9594C38.2201 28.9594 38.6867 29.426 38.6867 30.0009V31.829C38.6867 31.931 38.5452 31.959 38.5069 31.8634L38.3501 31.4657C38.3399 31.4402 38.3412 31.4121 38.354 31.3879C38.7606 30.5924 39.3802 29.9716 40.2127 29.5241C41.0579 29.0703 42.0433 28.8434 43.1715 28.8434L43.1677 28.8408Z" fill="#1B1B1B"/>
<path d="M57.6533 41.5435C56.4474 41.5435 55.3714 41.2771 54.4255 40.7455C53.4783 40.2139 52.7313 39.4694 52.1831 38.5146C51.6349 37.5597 51.3608 36.4481 51.3608 35.1809C51.3608 33.9137 51.6349 32.8059 52.1831 31.8587C52.7313 30.9115 53.4783 30.1722 54.4255 29.6406C55.3727 29.109 56.4486 28.8425 57.6533 28.8425C58.7025 28.8425 59.6484 29.0771 60.4936 29.5475C61.3388 30.0166 62.0158 30.7216 62.5244 31.6599C63.0331 32.5994 63.288 33.7735 63.288 35.1822C63.288 36.5909 63.042 37.765 62.5486 38.7045C62.0553 39.644 61.386 40.3516 60.5408 40.8296C59.6956 41.3077 58.7331 41.5461 57.6533 41.5461V41.5435ZM57.8407 39.5714C58.6235 39.5714 59.331 39.3916 59.9659 39.0308C60.5994 38.6713 61.1004 38.1589 61.4689 37.4934C61.836 36.828 62.0209 36.058 62.0209 35.1809C62.0209 34.3038 61.8373 33.5185 61.4689 32.8684C61.1004 32.2195 60.6007 31.7147 59.9659 31.3539C59.3323 30.9944 58.6235 30.8134 57.8407 30.8134C57.058 30.8134 56.3301 30.9931 55.7041 31.3539C55.0782 31.7147 54.5772 32.2195 54.2011 32.8684C53.8251 33.5185 53.6377 34.2885 53.6377 35.1809C53.6377 36.0733 53.8251 36.828 54.2011 37.4934C54.5772 38.1589 55.0769 38.6713 55.7041 39.0308C56.3301 39.3916 57.0427 39.5714 57.8407 39.5714ZM62.091 41.4033V38.0454L62.2312 35.158L61.9966 32.2705V23.9829H64.2505V41.4046H62.091V41.4033Z" fill="#1B1B1B"/>
<path d="M72.0935 41.5435C71.0609 41.5435 70.0781 41.402 69.1474 41.1203C68.6541 40.9711 68.2168 40.8041 67.8357 40.6205C67.327 40.3745 67.1281 39.755 67.3907 39.2552L67.4124 39.2132C67.661 38.7415 68.2372 38.5426 68.7178 38.7721C69.0633 38.9365 69.4457 39.0857 69.8626 39.2195C70.6454 39.4707 71.4434 39.5956 72.258 39.5956C73.3059 39.5956 74.0619 39.4465 74.5233 39.1494C74.9848 38.8524 75.2156 38.4368 75.2156 37.9052C75.2156 37.5138 75.0741 37.2091 74.7923 36.9899C74.5106 36.7706 74.1384 36.6062 73.6769 36.4965C73.2154 36.3869 72.7029 36.2887 72.1394 36.2033C71.576 36.1179 71.0125 36.0083 70.449 35.8744C69.8856 35.7418 69.3693 35.5544 68.8989 35.3109C68.4297 35.0687 68.0537 34.7322 67.7719 34.3013C67.4902 33.8704 67.3487 33.2955 67.3487 32.5752C67.3487 31.8549 67.5603 31.1665 67.9823 30.603C68.4042 30.0396 69.0034 29.6049 69.7785 29.3002C70.5536 28.9955 71.4727 28.8425 72.5372 28.8425C73.3505 28.8425 74.1766 28.9407 75.0142 29.1357C75.3966 29.225 75.7472 29.3321 76.0659 29.4557C76.6281 29.6737 76.8716 30.3341 76.586 30.8657C76.3349 31.3322 75.765 31.5133 75.2819 31.2966C74.9759 31.1589 74.6636 31.053 74.3449 30.9804C73.7342 30.8402 73.1236 30.7688 72.513 30.7688C71.5275 30.7688 70.7907 30.9294 70.3063 31.2506C69.8205 31.5719 69.5783 31.9824 69.5783 32.4834C69.5783 32.9066 69.7224 33.2304 70.013 33.4574C70.3024 33.6843 70.6785 33.8602 71.14 33.9851C71.6015 34.1101 72.1139 34.2159 72.6774 34.3026C73.2409 34.3893 73.8043 34.4989 74.3678 34.6315C74.9313 34.764 75.4438 34.9489 75.9052 35.1835C76.3667 35.418 76.7428 35.7469 77.0322 36.1702C77.3216 36.5934 77.4669 37.1569 77.4669 37.8606C77.4669 38.6114 77.2476 39.2616 76.8091 39.8098C76.3706 40.3579 75.7523 40.7837 74.9542 41.0897C74.1562 41.3944 73.2014 41.5473 72.0897 41.5473L72.0935 41.5435Z" fill="#1B1B1B"/>
<path d="M20.7974 23.3288C21.1314 23.9331 20.9338 24.689 20.3524 25.0626C19.8782 25.3672 19.3645 25.626 18.8112 25.8376C17.8462 26.2073 16.9041 26.3922 15.9849 26.3922C14.7229 26.3922 13.573 26.0365 12.5365 25.3239C11.5294 24.6317 10.6881 23.6641 10.0137 22.4199C9.97672 22.351 9.90533 22.3077 9.82757 22.3051C8.00203 22.2516 6.34986 21.8016 4.86853 20.9564C3.35404 20.0908 2.16337 18.9192 1.29777 17.4404C0.432166 15.9616 0 14.3209 0 12.5171C0 10.7132 0.446186 9.04193 1.33856 7.55422C2.23093 6.06651 3.44838 4.89878 4.98963 4.05103C6.53089 3.20327 8.25827 2.78003 10.1692 2.78003C12.0802 2.78003 13.7846 3.20327 15.3348 4.05103C16.8849 4.89878 18.1075 6.06651 18.9999 7.55422C19.8922 9.04193 20.3384 10.6966 20.3384 12.5171C20.3384 14.6091 19.7571 16.4792 18.5945 18.1301C17.4943 19.6905 16.0512 20.8276 14.2652 21.5415C14.1173 21.6002 14.0753 21.7914 14.1874 21.9048C14.9268 22.643 15.6879 23.0126 16.4706 23.0126C16.9206 23.0126 17.4357 22.8813 18.0119 22.62C18.3191 22.481 18.6327 22.3115 18.9514 22.1126C19.4257 21.8169 20.0516 21.9839 20.3219 22.4721L20.7961 23.3288H20.7974ZM5.17831 15.5728C5.70991 16.492 6.42253 17.2224 7.3149 17.7642C8.20727 18.3048 9.17613 18.575 10.2228 18.575C11.2694 18.575 12.228 18.3086 13.1038 17.777C13.9784 17.2454 14.6731 16.5149 15.1869 15.5856C15.7006 14.6575 15.9582 13.6338 15.9582 12.5158C15.9582 11.3978 15.7006 10.406 15.1869 9.48684C14.6731 8.5677 13.9784 7.84106 13.1038 7.30946C12.2484 6.79061 11.3127 6.52417 10.2954 6.51142C9.22712 6.49867 8.16775 6.78678 7.25243 7.33878C6.37409 7.86782 5.67804 8.58427 5.16556 9.48684C4.64288 10.406 4.38155 11.4169 4.38155 12.5158C4.38155 13.6147 4.64798 14.6524 5.17958 15.5728H5.17831Z" fill="#1B1B1B"/>
<path d="M131.056 35.2764C128.099 35.2636 127.273 36.8712 126.379 38.4456C125.963 39.1773 125.369 39.7994 124.151 39.8084C122.872 39.8173 122.12 39.2462 121.648 38.4405C121.238 37.7393 120.927 37.0076 120.535 36.3001C120.407 36.0681 120.264 35.7366 119.846 35.7736C119.448 35.8093 119.393 36.1407 119.311 36.3906C118.942 37.5264 119.178 38.6865 119.091 39.8339C119.031 40.6332 118.965 41.4338 118.545 42.1757C118.181 42.8195 117.616 43.4148 116.604 43.4454C115.583 43.4773 114.995 42.9138 114.573 42.2751C113.74 41.0169 113.545 39.6184 113.037 38.2888C112.777 37.608 112.542 36.9222 112.082 36.2988C111.759 35.8615 111.317 35.5071 110.593 35.604C109.935 35.692 109.65 36.0757 109.54 36.555C109.367 37.3097 109.163 38.0619 108.978 38.8153C108.803 39.5305 108.278 40.0314 107.303 40.1105C106.38 40.1844 105.755 39.7344 105.313 39.1837C104.781 38.5221 104.571 37.761 104.235 37.0369C103.954 36.4275 103.887 35.4842 102.732 35.5734C101.714 35.6525 101.924 36.5295 101.806 37.1147C101.515 38.5425 101.418 39.9932 100.938 41.4006C100.76 41.9169 100.553 42.4268 100.168 42.8781C99.2879 43.9056 97.9149 43.898 97.0736 42.8463C96.0333 41.5472 95.763 40.0812 95.5451 38.6088C95.4329 37.8477 95.3576 37.079 94.914 36.3689C94.6132 35.887 94.1848 35.4854 93.4148 35.5224C92.6181 35.5607 92.6359 36.1178 92.5072 36.5244C92.2611 37.2995 92.1018 38.0925 91.6122 38.8089C91.2948 39.2729 90.8461 39.663 90.0735 39.6312C89.3137 39.5993 88.8574 39.2117 88.6445 38.7095C88.3117 37.9254 88.0746 37.1172 87.761 36.3281C87.6284 35.9928 87.4665 35.6002 86.926 35.5415C86.3511 35.4791 86.1586 35.8845 85.9074 36.1739C84.625 37.6552 83.7581 37.7495 82.1136 36.5448C81.4315 36.0451 80.7521 35.5619 79.7947 35.3809C79.5894 35.3427 79.3931 35.2738 79.4059 35.1107C79.4122 35.0291 79.5856 34.9041 79.708 34.8837C80.8961 34.6836 81.6317 34.0067 82.482 33.4432C83.7504 32.6018 84.7206 32.714 85.6792 33.7861C85.7889 33.9085 85.8845 34.0385 85.9903 34.1622C86.2032 34.4095 86.3919 34.7104 86.8495 34.7027C87.3786 34.6938 87.5672 34.3458 87.6909 34.0475C87.9816 33.345 88.1906 32.6235 88.4545 31.9147C88.6967 31.2633 89.0677 30.6361 90.1118 30.6118C91.0985 30.5889 91.5434 31.1753 91.8137 31.777C92.1132 32.445 92.2955 33.1436 92.5403 33.8256C92.6703 34.189 92.6971 34.6402 93.3371 34.7116C94.0025 34.7843 94.4576 34.4796 94.77 34.0768C95.3411 33.3412 95.4137 32.5075 95.5374 31.6865C95.735 30.3632 95.9734 29.0502 96.7523 27.8302C97.1602 27.1902 97.6638 26.5758 98.7066 26.6076C99.743 26.6395 100.219 27.2871 100.553 27.9385C101.439 29.671 101.469 31.522 101.836 33.3272C101.943 33.8562 101.804 34.6058 102.772 34.6772C103.703 34.7461 103.852 34.0245 104.104 33.5095C104.47 32.7637 104.759 31.9937 105.18 31.2671C105.577 30.5825 106.27 30.0522 107.345 30.135C108.454 30.2205 108.872 30.8719 109.054 31.6228C109.23 32.3481 109.432 33.0697 109.586 33.7976C109.685 34.2693 110.037 34.5676 110.629 34.639C111.234 34.7129 111.669 34.4478 111.979 34.0679C112.499 33.4305 112.77 32.7229 113.02 32.009C113.428 30.84 113.771 29.6544 114.271 28.5071C114.641 27.6581 115.203 26.8129 116.643 26.7925C117.626 26.7785 118.573 27.7218 118.865 28.85C119.192 30.1083 119.079 31.3805 119.123 32.649C119.146 33.2902 119.04 34.2897 119.787 34.384C120.672 34.4962 120.751 33.4942 121.073 32.9256C121.365 32.4119 121.572 31.8573 121.961 31.3882C123.084 30.0305 125.183 30.0955 126.187 31.5017C126.612 32.0983 126.943 32.7331 127.363 33.3323C127.984 34.217 128.876 34.8353 130.297 34.8825C130.531 34.8901 130.771 34.9194 131.06 35.2815L131.056 35.2764Z" fill="url(#paint0_linear_2152_3276)"/>
<defs>
<linearGradient id="paint0_linear_2152_3276" x1="79.5894" y1="35.1221" x2="130.823" y2="35.1221" gradientUnits="userSpaceOnUse">
<stop stop-color="#C1202B"/>
<stop offset="0.31" stop-color="#D22534"/>
<stop offset="0.67" stop-color="#DF2A3C"/>
<stop offset="1" stop-color="#E42C3F"/>
</linearGradient>
</defs>
</svg>
