<svg width="630" height="531" viewBox="0 0 630 531" fill="none" xmlns="http://www.w3.org/2000/svg">
<g clip-path="url(#clip0_1_7238)">
<path d="M331.21 470.87L184.79 394.92L250.53 361.05L178.06 324.88L113.7 358.04L42.83 321.28L109.22 290.52L121.12 296.32L184.89 266.78V255.46L331.22 187.68L619.6 321.28L331.22 470.87H331.21Z" fill="#FEFEFE"/>
<path d="M184.88 255.27V266.79L239.12 293.55L250.65 288.15L184.88 255.26V255.27Z" fill="#007B99"/>
<path d="M184.79 394.92V402.38L113.7 365.51V358.05L42.83 321.29V336.16L331.22 485.75V470.88L184.8 394.93L184.79 394.92Z" fill="#007B99"/>
<path d="M331.21 470.87V485.74L619.59 336.15V321.28L331.21 470.87Z" fill="#007B99"/>
<path d="M113.7 365.51L113.8 372.95L184.79 410.28V402.38L113.7 365.51Z" fill="#007B99"/>
<path d="M331.21 485.74L257.91 448.21V432.85L331.21 470.87V485.74Z" fill="#007B99"/>
<path d="M394.98 286.63L465.91 250.09L390.79 215.28L321.35 251.06L394.98 286.63Z" fill="#FEFEFE"/>
<path d="M390.79 215.28L331.22 187.69L259.2 221.05L321.35 251.07L390.79 215.29V215.28Z" fill="#99D6E8"/>
<path d="M321.35 251.51L321.16 251.42L258.24 221.04L331.2 187.24L331.37 187.32L391.7 215.27L321.34 251.51H321.35ZM260.14 221.06L321.34 250.62L389.87 215.31L331.22 188.14L260.15 221.07L260.14 221.06Z" fill="#007B99"/>
<path d="M470.73 310.78L543.18 273.45L465.9 237.65L394.97 274.19L470.72 310.78H470.73Z" fill="url(#paint0_linear_1_7238)"/>
<path d="M470.74 311.23L470.56 311.14L394.08 274.21L465.9 237.2L466.08 237.29L544.11 273.43L470.74 311.24V311.23ZM395.89 274.19L470.73 310.33L542.26 273.48L465.92 238.11L395.88 274.2L395.89 274.19Z" fill="#007B99"/>
<path d="M543.18 273.45V285.88L470.73 323.2L394.98 286.63V274.19L470.73 310.78L543.18 273.45Z" fill="#007B99"/>
<path d="M470.73 310.78V323.2L394.98 286.63V274.19L470.73 310.78Z" fill="#007B99"/>
<path d="M250.16 287.74L178.06 324.89L250.53 361.06L322.98 323.74L250.17 287.75L250.16 287.74Z" fill="#FEFEFE"/>
<path d="M394.98 286.63L321.35 251.06L250.16 287.73L322.97 323.72L394.98 286.62V286.63Z" fill="#C2EEEB"/>
<path d="M322.98 324.18L249.27 287.75L321.34 250.62L321.52 250.71L395.89 286.62L322.98 324.18ZM251.06 287.73L322.97 323.28L394.08 286.64L321.35 251.52L251.06 287.73Z" fill="#007B99"/>
<path d="M321.35 251.06L259.2 221.04L184.89 255.47L250.16 287.73L321.35 251.06Z" fill="#FEFEFE"/>
<path d="M250.52 361.05L325.07 398.25L397.87 360.74L322.97 323.72L250.52 361.04V361.05Z" fill="url(#paint1_linear_1_7238)"/>
<path d="M325.07 398.7L249.63 361.05L322.97 323.27L323.15 323.36L398.77 360.73L325.08 398.7H325.07ZM251.42 361.05L325.08 397.8L396.98 360.76L322.99 324.18L251.43 361.05H251.42Z" fill="#007B99"/>
<path d="M239.13 293.55L184.89 266.79L121.12 296.33L178.32 324.88L239.13 293.55Z" fill="url(#paint2_linear_1_7238)"/>
<path d="M178.32 325.34L120.19 296.32L184.89 266.34L185.07 266.42L240.02 293.54L178.32 325.34ZM122.05 296.34L178.31 324.43L238.22 293.55L184.87 267.23L122.04 296.34H122.05Z" fill="#007B99"/>
<path d="M397.88 360.48L472.46 397.34L545.91 359.24L470.75 322.93L397.88 360.47V360.48Z" fill="url(#paint3_linear_1_7238)"/>
<path d="M472.45 398.06L472.27 397.98L396.97 360.75L470.72 322.75L470.91 322.84L546.8 359.49L472.45 398.06ZM398.77 360.74L472.44 397.16L545 359.53L470.74 323.67L398.77 360.75V360.74Z" fill="#007B99"/>
<path d="M543.18 285.88L470.73 323.2L545.89 359.51L619.59 321.28L543.18 285.88Z" fill="#FEFEFE"/>
<path d="M109.22 290.53L42.83 321.29L113.7 358.05L178.06 324.89L109.22 290.53Z" fill="#FEFEFE"/>
<path d="M257.92 432.86L331.22 470.88L399.55 435.43L325.07 398.26L257.92 432.86Z" fill="url(#paint4_linear_1_7238)"/>
<path d="M331.21 471.33L331.02 471.23L257.03 432.84L325.06 397.79L400.44 435.41L331.21 471.32V471.33ZM258.79 432.86L331.21 470.42L398.65 435.43L325.07 398.7L258.79 432.85V432.86Z" fill="#007B99"/>
<path d="M178.06 332.35L113.7 365.51L184.79 402.38V394.92L243.18 364.85L178.06 332.35Z" fill="url(#paint5_linear_1_7238)"/>
<path d="M250.52 361.05L184.78 394.92L257.91 432.86L325.06 398.26L250.51 361.06L250.52 361.05Z" fill="#FEFEFE"/>
<path d="M325.07 383.78V398.25L399.55 435.42V420.95L325.07 383.77V383.78Z" fill="#007B99"/>
<path d="M399.55 420.96V435.43L472.45 397.62V383.15L399.55 420.97V420.96Z" fill="#007B99"/>
<path d="M325.07 383.78L399.55 420.96L472.45 383.14L397.87 346.28L325.07 383.78Z" fill="#FEFEFE"/>
<path d="M322.97 323.73L397.87 360.75L470.74 323.21L394.98 286.64L322.97 323.74V323.73Z" fill="#FEFEFE"/>
<path d="M113.7 365.51V358.05L178.06 324.89L250.53 361.06L243.18 364.85L178.06 332.35L113.7 365.51Z" fill="#FEFEFE"/>
<path d="M113.7 358.05V365.51L178.06 332.35V324.89L113.7 358.05Z" fill="#007B99"/>
<path d="M470.74 323.61C470.6 323.61 470.45 323.53 470.38 323.39C470.28 323.2 470.35 322.95 470.55 322.84L543 285.51C543.11 285.45 543.24 285.45 543.36 285.51L619.77 320.91C619.97 321.01 620.06 321.25 619.97 321.45C619.87 321.65 619.63 321.74 619.43 321.65L543.19 286.33L470.92 323.56C470.86 323.59 470.8 323.61 470.74 323.61Z" fill="#007B99"/>
<path d="M331.21 486.15C330.99 486.15 330.8 485.97 330.8 485.74V470.87C330.8 470.65 330.99 470.46 331.21 470.46C331.43 470.46 331.61 470.65 331.61 470.87V485.74C331.61 485.97 331.43 486.15 331.21 486.15Z" fill="#007B99"/>
<path d="M545.9 374.41C545.68 374.41 545.5 374.23 545.5 374.01V359.51C545.5 359.36 545.58 359.22 545.71 359.15L619.41 320.92C619.6 320.82 619.84 320.9 619.95 321.09C620.05 321.29 619.98 321.53 619.78 321.63L546.31 359.75V374C546.31 374.23 546.13 374.4 545.9 374.4V374.41Z" fill="#007B99"/>
<path d="M399.55 421.36C399.49 421.36 399.43 421.35 399.37 421.32L324.89 384.15C324.75 384.08 324.67 383.94 324.67 383.79C324.67 383.64 324.75 383.5 324.89 383.42L397.69 345.92C397.8 345.86 397.94 345.86 398.06 345.92L472.63 382.79C472.77 382.86 472.86 382.99 472.86 383.15C472.86 383.3 472.78 383.44 472.65 383.51L399.75 421.32C399.69 421.36 399.63 421.37 399.56 421.37L399.55 421.36ZM325.96 383.78L399.54 420.5L471.54 383.15L397.86 346.73L325.95 383.77L325.96 383.78Z" fill="#007B99"/>
<path d="M383.21 353.91C383.15 353.91 383.09 353.9 383.03 353.87L322.79 324.09C322.65 324.02 322.57 323.89 322.57 323.73C322.57 323.57 322.65 323.44 322.78 323.37L394.79 286.27C394.91 286.21 395.04 286.21 395.15 286.27L470.91 322.85C471.05 322.92 471.14 323.06 471.14 323.21C471.14 323.37 471.06 323.51 470.93 323.58L412.17 353.85C411.98 353.95 411.74 353.87 411.62 353.67C411.52 353.48 411.6 353.24 411.8 353.12L469.83 323.23L394.99 287.08L323.87 323.72L383.39 353.14C383.59 353.24 383.67 353.48 383.58 353.68C383.51 353.82 383.37 353.91 383.21 353.91Z" fill="#007B99"/>
<path d="M257.92 448.62C257.7 448.62 257.51 448.43 257.51 448.21V433.09L185.2 395.58V409.84C185.2 410.06 185.01 410.24 184.79 410.24C184.57 410.24 184.39 410.06 184.39 409.84V394.92C184.39 394.77 184.46 394.65 184.58 394.57C184.7 394.49 184.85 394.49 184.97 394.56L258.1 432.5C258.23 432.57 258.31 432.71 258.31 432.86V448.22C258.31 448.44 258.13 448.63 257.91 448.63L257.92 448.62Z" fill="#007B99"/>
<path d="M184.79 395.33C184.65 395.33 184.5 395.25 184.43 395.11C184.33 394.92 184.4 394.67 184.6 394.56L250.34 360.69C250.54 360.59 250.78 360.67 250.89 360.86C250.99 361.06 250.92 361.3 250.72 361.41L184.98 395.28C184.92 395.31 184.86 395.33 184.79 395.33Z" fill="#007B99"/>
<path d="M250.32 360.98C250.27 360.98 250.2 360.97 250.15 360.94L178.47 325.54V332.35C178.47 332.58 178.28 332.76 178.06 332.76C177.84 332.76 177.66 332.58 177.66 332.35V324.9C177.66 324.75 177.73 324.62 177.85 324.55C177.97 324.47 178.12 324.47 178.24 324.53L250.5 360.21C250.7 360.31 250.78 360.56 250.68 360.76C250.61 360.9 250.47 360.99 250.31 360.99L250.32 360.98Z" fill="#007B99"/>
<path d="M113.8 373.35C113.58 373.35 113.39 373.17 113.39 372.95V358.05L42.64 321.64C42.44 321.54 42.36 321.29 42.46 321.1C42.56 320.91 42.81 320.83 43.01 320.93L113.98 357.46C114.11 357.53 114.19 357.67 114.19 357.82V372.96C114.19 373.18 114.01 373.36 113.79 373.36L113.8 373.35Z" fill="#007B99"/>
<path d="M113.8 358.21C113.65 358.21 113.51 358.13 113.44 357.99C113.34 357.8 113.41 357.55 113.61 357.44L177.87 324.53L249.75 288.16L185.29 255.93V266.78C185.29 267 185.1 267.19 184.88 267.19C184.66 267.19 184.48 267 184.48 266.78V255.27C184.48 255.12 184.55 255 184.67 254.92C184.79 254.85 184.94 254.84 185.06 254.91L250.83 287.8C250.96 287.87 251.05 288.01 251.05 288.16C251.05 288.31 250.96 288.45 250.83 288.52L178.23 325.25L113.97 358.16C113.91 358.2 113.85 358.21 113.79 358.21H113.8Z" fill="#007B99"/>
<path d="M399.55 450.7C399.33 450.7 399.15 450.52 399.15 450.3V420.96C399.15 420.74 399.33 420.56 399.55 420.56C399.77 420.56 399.96 420.74 399.96 420.96V450.3C399.96 450.52 399.78 450.7 399.55 450.7Z" fill="#007B99"/>
<path d="M472.45 412.89C472.23 412.89 472.04 412.71 472.04 412.48V383.13C472.04 382.91 472.23 382.73 472.45 382.73C472.67 382.73 472.85 382.91 472.85 383.13V412.48C472.85 412.71 472.67 412.89 472.45 412.89Z" fill="#007B99"/>
<path d="M144.74 140.4C194.71 112.07 247.2 84.53 298.73 57.11C331.73 39.55 371.31 39.64 404.24 57.35C456.36 85.37 509.26 113.81 560.59 141.4L533.21 156.33C486.1 131.02 438.15 105.3 390.66 79.8C366.01 66.56 336.39 66.54 311.7 79.73C252.34 111.46 170.54 154.98 170.54 154.98" fill="url(#paint6_linear_1_7238)" fill-opacity="0.7"/>
<path d="M144.47 140.21L157.48 147.18L170.55 140.15L157.58 133.16L144.48 140.21H144.47Z" fill="#F27F87"/>
<path d="M144.47 140.21V154.92L157.48 161.91V147.18L144.47 140.21Z" fill="#CE192D"/>
<path d="M157.48 147.18V161.91L157.5 161.95L170.55 154.92V140.15L157.48 147.18Z" fill="#FAB1B2"/>
<path d="M280.7 163.74C233.96 188.88 182.37 216.64 135.15 242.06C131.96 243.77 131.96 248.33 135.15 250.05C160.75 263.85 188.77 279.07 213.85 292.55L177.4 313.13C155.6 301.41 132.7 289.45 109.96 277.51C88.24 266.12 88.09 235.1 109.7 223.51C156.98 198.16 207.56 171.09 251 147.76L280.7 163.73V163.74Z" fill="url(#paint7_linear_1_7238)" fill-opacity="0.7"/>
<path d="M213.87 292.56L195.67 302.31L177.4 292.5L195.54 282.73L213.87 292.56Z" fill="#CE192D"/>
<path d="M177.41 292.56V313.14L195.61 322.91V302.31L177.41 292.56Z" fill="#F27F87"/>
<path d="M195.6 302.31V322.91L195.64 322.95L213.87 313.14V292.5L195.6 302.31Z" fill="#FAB1B2"/>
<path d="M343.19 325.44C382.81 304.12 426.53 280.59 466.58 259.04C469.29 257.59 469.29 253.72 466.58 252.27C444.88 240.57 421.14 227.66 399.86 216.24L430.76 198.79C449.24 208.73 468.66 218.87 487.93 228.98C507.2 239.09 506.46 264.93 488.15 274.76C448.07 296.25 405.2 319.21 368.36 338.97L343.19 325.43V325.44Z" fill="url(#paint8_linear_1_7238)" fill-opacity="0.7"/>
<path d="M430.76 198.83L415.35 207.1L399.86 198.77L415.24 190.48L430.77 198.83H430.76Z" fill="#E55C68"/>
<path d="M399.86 198.83V216.28L415.27 224.55V207.1L399.86 198.83Z" fill="#FAB1B2"/>
<path d="M415.27 207.1V224.55L415.31 224.59L430.76 216.28V198.78L415.27 207.11V207.1Z" fill="#F27F87"/>
<path d="M502.19 339.3C453.78 366.76 411.43 393.43 372.31 415.14C333.19 436.85 281.63 438.02 240.54 415.59L11 290.16L48.73 269.1L276.71 386.42C299.01 398.4 325.86 398.23 348.03 385.97L465.04 318.31" fill="url(#paint9_linear_1_7238)" fill-opacity="0.7"/>
<path d="M465.02 318.31L483.57 328.27L502.19 318.26L483.7 308.28L465.02 318.31Z" fill="#E55C68"/>
<path d="M465.02 318.31V339.3L483.57 349.26V328.27L465.02 318.31Z" fill="#F27F87"/>
<path d="M483.57 328.26V349.25L483.61 349.27L502.2 339.29V318.24L483.58 328.25L483.57 328.26Z" fill="#FAB1B2"/>
<path d="M424.72 128.04C445.16 141.09 513.77 178.4 561.44 203.9C608.94 229.3 609.44 297.23 562.31 323.32L541.26 308.32C575.74 289.67 575.35 240.71 541.26 221.54L422.45 157.28" fill="url(#paint10_linear_1_7238)" fill-opacity="0.7"/>
<path d="M422.79 157.5L422.89 142.27L410.15 133.72L410.04 148.95L422.79 157.5Z" fill="#F27F87"/>
<path d="M422.79 157.5L436.25 150.4L436.35 135.15L422.89 142.27L422.79 157.5Z" fill="#CE192D"/>
<path d="M422.88 142.27L436.34 135.15V135.11L423.64 126.58L410.14 133.72L422.88 142.27Z" fill="#FAB1B2"/>
<path d="M402.49 220.7C402.49 220.7 400.67 222.55 400.63 222.56H400.62C395.17 253.48 372.07 294.65 341.82 315.41C341.84 315.41 341.87 315.38 341.89 315.37C341.87 315.39 341.84 315.4 341.82 315.42H341.81C340.86 316.1 339.87 316.8 338.88 317.46C338.88 317.46 338.873 317.463 338.86 317.47C334.79 320.25 330.46 322.85 325.85 325.25C292.83 298.81 251.01 254.24 244.35 200.88L241.91 198.31C240.88 193.16 238.82 176.85 243.91 143.41C251.21 140.73 259.2 140.77 266.88 141.25C267.14 141.04 270.15 139.02 270.34 138.88H270.35C270.91 138.47 271.52 138.13 272.1 137.71C272.12 137.71 272.14 137.7 272.15 137.68C283.18 130.76 294.88 124.33 307.24 120.15C323.78 112.38 362.45 140.79 373.01 153.65C381.67 156.06 390.58 158.64 398.17 163.58C400.24 172 406.46 200.28 402.5 220.69L402.49 220.7Z" fill="url(#paint11_linear_1_7238)"/>
<path d="M408.45 216.86L402.49 220.69C406.45 200.28 400.24 172 398.16 163.58H398.17L404.13 159.76C404.3 160.51 412.38 196.66 408.46 216.86H408.45Z" fill="url(#paint12_linear_1_7238)"/>
<path d="M408.44 216.89L406.57 218.75L400.64 222.55L402.47 220.71H402.48L408.43 216.89H408.44Z" fill="#373737"/>
<path d="M404.13 159.75L398.17 163.58H398.16C390.56 158.65 381.66 156.06 373.01 153.64C362.53 140.86 323.77 112.37 307.24 120.14C297.21 123.51 287.72 128.42 278.6 133.71C293.17 125.72 312.93 109.82 331.02 116.86C346.23 124.07 368.38 136.11 378.98 149.82C387.63 151.92 400.48 156.81 404.14 159.75H404.13Z" fill="url(#paint13_linear_1_7238)"/>
<path d="M408.44 216.88L406.57 218.74L405.95 222.14C405.83 222.74 395.12 276.83 348.92 310.75C348.54 311.03 348.16 311.31 347.76 311.58H347.74C346.78 312.28 345.79 312.97 344.78 313.64C343.82 314.22 342.86 314.79 341.87 315.35C341.85 315.36 341.82 315.38 341.8 315.39C342.14 315.16 342.46 314.92 342.79 314.67C342.87 314.61 342.94 314.55 343.02 314.5C354.44 306.1 363.69 296.47 371.16 286.72C371.35 286.46 371.54 286.21 371.73 285.96C385.25 268.04 392.76 249.84 396.56 238.25C396.83 237.44 397.08 236.67 397.31 235.94C399.13 230.08 399.89 226.38 399.98 225.98V225.95L400.6 222.56H400.61L400.64 222.53L402.47 220.69H402.48L408.43 216.87L408.44 216.88Z" fill="url(#paint14_linear_1_7238)"/>
<path d="M272.56 137.42C272.42 137.51 272.28 137.6 272.14 137.69C272.13 137.71 272.11 137.72 272.09 137.72C272.01 137.78 271.93 137.83 271.85 137.88C271.62 138.04 271.39 138.19 271.17 138.32C271.03 138.43 270.88 138.52 270.74 138.61C270.67 138.65 270.61 138.7 270.54 138.74C270.47 138.79 270.41 138.83 270.35 138.88C270.22 138.97 270.09 139.06 269.97 139.14L266.92 141.22L266.9 141.24L265.89 141.19L263.46 141.07H263.19C262.02 141.01 260.86 140.98 259.74 140.98H259.46C257.79 140.99 256.23 141.06 254.8 141.18C254.46 141.21 254.13 141.23 253.8 141.27C253.45 141.3 253.11 141.34 252.77 141.38C252.74 141.38 252.71 141.38 252.68 141.39C252.37 141.43 252.06 141.47 251.76 141.51C251.42 141.56 251.08 141.61 250.75 141.66C250.34 141.73 249.93 141.8 249.55 141.87C249.39 141.9 249.24 141.93 249.09 141.96C248.96 141.98 248.84 142.01 248.72 142.04C248.39 142.1 248.07 142.17 247.76 142.25C247.15 142.39 246.57 142.54 246.05 142.69C245.27 142.92 244.57 143.15 243.96 143.37L249.89 139.57L249.92 139.55H249.95C252.28 138.69 255.84 137.75 260.76 137.36C262.19 137.24 263.75 137.17 265.42 137.16H265.7C266.82 137.16 267.98 137.19 269.15 137.24L270.74 137.32L272.59 137.41L272.56 137.42Z" fill="url(#paint15_linear_1_7238)"/>
<g style="mix-blend-mode:overlay">
<path d="M408.45 216.87L402.49 220.7C406.45 200.29 400.24 172.01 398.16 163.59H398.17L404.13 159.77C404.3 160.52 412.38 196.67 408.46 216.87H408.45Z" fill="#1A1A1A"/>
</g>
<g style="mix-blend-mode:overlay">
<path d="M408.44 216.88L406.57 218.74L405.95 222.14C405.83 222.74 395.12 276.83 348.92 310.75C348.54 311.03 348.16 311.31 347.76 311.58H347.74C346.78 312.28 345.79 312.97 344.78 313.64C343.82 314.22 342.86 314.79 341.87 315.35C341.85 315.36 341.82 315.38 341.8 315.39C342.14 315.16 342.46 314.92 342.79 314.67C342.87 314.61 342.94 314.55 343.02 314.5C354.44 306.1 363.69 296.47 371.16 286.72C371.35 286.46 371.54 286.21 371.73 285.96C385.25 268.04 392.76 249.84 396.56 238.25C396.83 237.44 397.08 236.67 397.31 235.94C399.13 230.08 399.89 226.38 399.98 225.98V225.95L400.6 222.56H400.61L400.64 222.53L402.47 220.69H402.48L408.43 216.87L408.44 216.88Z" fill="#1A1A1A"/>
</g>
<g style="mix-blend-mode:overlay">
<path d="M272.56 137.42C272.42 137.51 272.28 137.6 272.14 137.69C272.13 137.71 272.11 137.72 272.09 137.72C272.01 137.78 271.93 137.83 271.85 137.88C271.62 138.04 271.39 138.19 271.17 138.32C271.03 138.43 270.88 138.52 270.74 138.61C270.67 138.65 270.61 138.7 270.54 138.74C270.47 138.79 270.41 138.83 270.35 138.88C270.22 138.97 270.09 139.06 269.97 139.14L266.92 141.22L266.9 141.24L265.89 141.19L263.46 141.07H263.19C262.02 141.01 260.86 140.98 259.74 140.98H259.46C257.79 140.99 256.23 141.06 254.8 141.18C254.46 141.21 254.13 141.23 253.8 141.27C253.45 141.3 253.11 141.34 252.77 141.38C252.74 141.38 252.71 141.38 252.68 141.39C252.37 141.43 252.06 141.47 251.76 141.51C251.42 141.56 251.08 141.61 250.75 141.66C250.34 141.73 249.93 141.8 249.55 141.87C249.39 141.9 249.24 141.93 249.09 141.96C248.96 141.98 248.84 142.01 248.72 142.04C248.39 142.1 248.07 142.17 247.76 142.25C247.15 142.39 246.57 142.54 246.05 142.69C245.27 142.92 244.57 143.15 243.96 143.37L249.89 139.57L249.92 139.55H249.95C252.28 138.69 255.84 137.75 260.76 137.36C262.19 137.24 263.75 137.17 265.42 137.16H265.7C266.82 137.16 267.98 137.19 269.15 137.24L270.74 137.32L272.59 137.41L272.56 137.42Z" fill="#1A1A1A"/>
</g>
<g style="mix-blend-mode:soft-light" opacity="0.5">
<path d="M404.13 159.76C400.47 156.81 387.62 151.92 378.97 149.82C368.38 136.11 346.22 124.07 331.01 116.86C314.32 110.36 296.21 123.4 282.07 131.73C282.06 131.73 282.05 131.73 282.04 131.75C281.79 131.89 281.54 132.04 281.29 132.18C280.77 132.49 280.25 132.78 279.74 133.08C277.17 134.57 274.65 136.11 272.15 137.68C272.29 137.59 272.43 137.5 272.57 137.41L270.72 137.32L269.13 137.24C267.96 137.19 266.8 137.16 265.68 137.16H265.4C263.73 137.16 262.17 137.24 260.74 137.36C255.82 137.75 252.27 138.7 249.94 139.55H249.91L249.88 139.57L243.94 143.37C244.55 143.15 245.25 142.92 246.03 142.69C246.55 142.54 247.13 142.39 247.74 142.25C246.44 142.56 245.17 142.94 243.91 143.41C238.82 176.85 240.88 193.16 241.91 198.31L244.35 200.88C251.01 254.24 292.83 298.81 325.85 325.25C330.46 322.86 334.78 320.25 338.86 317.47C338.87 317.47 338.88 317.47 338.88 317.46C339.87 316.8 340.86 316.1 341.81 315.42C341.81 315.42 341.86 315.39 341.88 315.37C342.87 314.81 343.83 314.24 344.79 313.66C345.8 312.99 346.78 312.3 347.75 311.6H347.77C348.16 311.33 348.54 311.05 348.93 310.77C395.13 276.85 405.84 222.76 405.96 222.16L406.58 218.76L408.45 216.9C412.37 196.69 404.29 160.54 404.12 159.79H404.13V159.76ZM271.02 138.42C271.07 138.39 271.12 138.35 271.17 138.31C271.22 138.28 271.28 138.25 271.34 138.21C271.23 138.28 271.12 138.35 271.02 138.42ZM402.38 220.82C402.44 220.75 402.48 220.71 402.49 220.71L402.38 220.82Z" fill="black"/>
</g>
<path d="M389.19 167.76L385.84 169.9C382.84 167.62 374.33 164.07 366.59 161.94L363.68 161.15L361.72 158.86C352.65 148.24 333.74 137.92 321.45 132.14C317.09 130.09 312.13 129.73 307.52 131.11C298.26 133.9 287.9 139.29 280.49 143.66L283.17 141.83C289.14 137.78 297.69 132.95 310.87 128.97C315.49 127.58 320.45 127.95 324.8 130.01C337.08 135.78 356.02 146.12 365.07 156.72L367.03 159.02L369.94 159.81C377.68 161.93 386.2 165.48 389.19 167.77V167.76Z" fill="url(#paint16_linear_1_7238)"/>
<path d="M274.9 147.21C271.76 149.05 274.72 147.18 272.95 148.39L270.24 150.24L266.97 150.08C265.94 150.04 264.92 150.01 263.93 150.01H263.68C262.21 150.01 260.83 150.08 259.58 150.19C255.23 150.53 252.09 151.38 250.04 152.13L253.34 149.86C261.83 146.14 273.22 147.33 274.9 147.23V147.21Z" fill="url(#paint17_linear_1_7238)"/>
<path d="M389.81 220.09L389.64 220.19C393.11 202.3 387.7 177.54 385.85 170.01C385.85 169.97 385.85 169.93 385.83 169.9C382.84 167.62 374.33 164.07 366.58 161.95L363.67 161.16L361.72 158.87C352.66 148.25 333.73 137.92 321.45 132.14C319.16 131.06 316.7 130.45 314.22 130.32C313.69 130.29 313.13 130.29 312.6 130.3C310.9 130.34 309.2 130.62 307.53 131.12C298.27 133.91 289.45 138.23 282.04 142.6C282.03 142.6 280.5 143.65 280.49 143.66C275.95 146.42 274.72 147.2 272.93 148.39L270.23 150.22H270.22L266.95 150.08C265.92 150.04 264.9 150.01 263.91 150.01H263.66C262.25 150.01 252.22 151.83 250.24 152.1C250.15 152.11 250.07 152.12 250.02 152.12C249.66 154.82 248.81 159.9 248.42 163.98C248.11 167.29 247.8 171.23 247.59 175.35C247.57 175.62 247.56 175.9 247.55 176.17C247.38 179.45 247.27 182.82 247.26 186.07C247.24 191.55 247.5 196.7 248.26 200.47L250.41 202.73L250.85 205.81C255.51 237.84 275.63 265.84 291.7 283.69C298.94 291.73 304.31 296.92 310.18 302.13C314.29 305.77 319.58 310.21 322.14 312.24C322.16 312.23 322.2 312.21 322.23 312.2C322.25 312.19 322.27 312.18 322.3 312.16C324.19 311.1 334.99 304.3 336.18 303.61C336.19 303.61 336.2 303.61 336.2 303.61C336.46 303.47 336.71 303.32 336.97 303.15C340.66 301.03 344.36 298.99 347.44 296.31C385.81 262.96 390.41 223.99 390.51 223.46L391.05 220.47L392.7 218.82L389.78 220.11H389.79L389.81 220.09ZM322.47 260.33C322.47 260.33 322.37 260.33 322.32 260.33C320.37 260.2 318.44 259.91 316.51 259.48C302.23 256.28 288.96 244.93 282.43 228.48C277.34 215.59 277.38 202.18 281.57 191.14C282.23 189.41 282.98 187.74 283.84 186.14C285.89 182.29 288.51 178.85 291.63 175.97C294.74 173.1 298.36 170.78 302.45 169.16C321 161.8 342.74 171.54 354.09 191.21H354.11C354.14 191.28 354.18 191.34 354.21 191.4C354.94 192.71 355.66 194.06 356.3 195.45C356.78 196.48 357.23 197.54 357.68 198.63C367.32 222.94 358.61 249.23 338.23 257.73C338.05 257.82 337.86 257.9 337.68 257.97C332.75 259.92 327.6 260.66 322.48 260.34H322.49L322.47 260.33Z" fill="url(#paint18_linear_1_7238)"/>
<path d="M348.15 250.99C345.04 253.86 341.42 256.17 337.35 257.78C332.42 259.74 327.27 260.49 322.16 260.16C320.16 260.03 318.17 259.74 316.19 259.29C301.9 256.08 288.64 244.74 282.12 228.28C276.22 213.4 277.19 197.78 283.53 185.95C287.51 178.45 293.75 172.75 301.64 169.46C279.83 185.04 279.96 209.57 285.85 224.46C292.38 240.91 313.94 266.97 347.58 251.21C347.75 251.13 347.95 251.07 348.14 250.98L348.15 250.99Z" fill="url(#paint19_linear_1_7238)"/>
<path d="M392.98 218.04L389.64 220.18C393.13 202.21 387.66 177.31 385.83 169.9L389.18 167.76C390.99 175.17 396.47 200.07 392.98 218.04Z" fill="url(#paint20_linear_1_7238)"/>
<path d="M392.98 218.04L392.73 218.8L388 221.84L389.65 220.2L392.98 218.05V218.04Z" fill="#E91233"/>
<g opacity="0.5">
<path d="M282.43 228.46C288.52 241.99 299.47 253.64 313.66 258.56L316.52 259.46C300.54 256.54 287.61 243.54 282.44 228.46H282.43Z" fill="#F0F0F0"/>
</g>
<g opacity="0.5">
<path d="M285.81 224.43C291.9 237.96 302.85 249.61 317.04 254.53L319.9 255.42C303.92 252.5 290.99 239.5 285.82 224.42L285.81 224.43Z" fill="black"/>
</g>
<path d="M300.29 209.97C301.34 204.47 304.64 199.3 309.39 196.02C311.78 194.43 314.49 193.26 317.37 192.74C320.25 192.21 323.2 192.36 326.03 193.08C331.68 194.55 336.64 198.41 339.42 203.51C342.23 208.58 342.81 214.74 341.25 220.12C339.73 225.52 336 230.11 331.35 232.7C326.72 235.36 321.12 236.08 316.08 234.73C311.05 233.4 306.44 230.26 303.47 225.78C300.4 221.33 299.2 215.5 300.29 209.99V209.97ZM304.74 211.06C303.48 215.29 303.88 220.06 305.98 224.17C307.08 226.2 308.55 228.03 310.38 229.48C312.21 230.93 314.34 231.91 316.6 232.48C321.11 233.52 325.98 232.6 329.73 230.02C333.5 227.43 336.02 223.33 336.78 219.01C337.57 214.66 336.54 210.2 334.19 206.73C331.87 203.25 328.31 200.76 324.36 199.9C320.49 199.03 316.29 199.44 312.63 201.42C308.93 203.33 306.01 206.85 304.74 211.08V211.06Z" fill="#37363D"/>
<path d="M319.81 214.27C320.93 212.53 322.78 211.79 324.37 211.59C326.01 211.37 327.6 211.54 329.1 211.85C332.14 212.47 334.94 213.66 337.6 215.16C340.26 216.66 342.75 218.47 344.86 220.83C345.91 222.02 346.88 223.32 347.55 224.91C348.21 226.46 348.57 228.58 347.6 230.55C346.55 232.5 344.56 233.5 342.85 233.86C341.09 234.24 339.41 234.24 337.77 234.03C334.49 233.6 331.48 232.39 328.7 230.84C325.92 229.25 323.48 227.05 321.58 224.35C320.65 222.97 319.85 221.47 319.37 219.79C318.87 218.15 318.76 216.03 319.82 214.26L319.81 214.27ZM322.01 215.55C321.61 216.47 321.73 217.6 322.27 218.74C322.79 219.85 323.65 220.91 324.57 221.85C326.42 223.78 328.72 225.3 331.03 226.73C333.35 228.13 335.9 229.24 338.46 229.82C340.94 230.42 343.82 230.32 344.78 228.92C345.25 228.25 345.37 227.09 344.99 225.85C344.64 224.62 343.99 223.39 343.16 222.25C341.5 219.96 339.27 218.08 336.82 216.53C334.34 215.06 331.65 213.92 328.82 213.56C327.42 213.39 326.01 213.39 324.76 213.7C323.48 213.96 322.44 214.65 322 215.53V215.55H322.01Z" fill="#37363D"/>
<path d="M322.11 218.25C321.77 218.41 321.41 218.5 321.04 218.52H320.58C318.9 218.4 317.35 216.98 317.32 215.18V214.97C317.34 213.19 318.7 211.7 320.43 211.53C320.55 211.53 320.67 211.51 320.78 211.51C324.41 211.51 325.58 216.7 322.11 218.23V218.25Z" fill="url(#paint21_radial_1_7238)"/>
<path d="M319.03 218.01C319.03 218.01 319.43 225.63 328.53 230.76L326.87 231.58C326.87 231.58 331.34 231.43 331.12 230.65C330.9 229.86 324.1 229.13 319.04 218.03L319.03 218.01Z" fill="#231F22"/>
<path d="M321.99 218.28C321.99 218.28 323.26 222.58 332.41 227.61C335.55 229.51 323.4 224.38 321.99 218.28Z" fill="#625C66"/>
<path d="M319.68 199.45C319.68 199.45 334.6 198.24 337.03 214.85C339.7 220.31 340.79 196.82 319.68 199.45Z" fill="#231F22"/>
<path d="M337.03 216.67C337.03 216.67 336.94 222.82 332.92 227.11C331.33 228.89 338.46 223.51 338.11 217.4C337.97 216.43 337.02 216.67 337.02 216.67H337.03Z" fill="#231F22"/>
<path d="M307.72 197.31C307.72 197.31 296.66 205.58 300.77 220.03C305.25 234.19 321.47 239.03 331.35 232.7C334.38 230.57 332.27 231.65 329.46 232.76C325.14 234.46 322.29 234.48 319.44 234.15C315.9 233.74 312.14 232.87 307.41 228.18C301.32 222.15 301.18 212.51 305.61 205.18C308.41 200.54 310.97 195.52 307.71 197.3L307.72 197.31Z" fill="#231F22"/>
<path d="M321.57 192.72C321.57 192.72 316.77 192.77 320.81 195.75C324.85 198.73 337.66 194.94 340.58 215.31C340.58 215.31 342.35 217.73 341.44 210.14C340.52 202.54 332.49 192.8 321.57 192.73V192.72Z" fill="#4E4952"/>
<path d="M385.4 219.62L383.86 221.18L383.35 224.02C383.52 224.3 373.36 271.71 335.35 298.87H335.33C331.28 301.83 326.9 304.6 322.18 307.09C295.12 285.11 260.45 247.75 254.96 203.01L252.95 200.86C252.1 196.56 250.4 182.89 254.6 154.91C258.95 153.01 267.93 152.57 273.53 153.1C276.74 150.86 278.91 149.37 283.14 146.84C293.67 141.57 308.72 130.08 321.52 135.89C334.07 141.92 352.31 151.97 361.08 163.47C368.2 165.22 378.81 169.32 381.83 171.78C383.54 178.83 388.67 202.5 385.4 219.59V219.61V219.62Z" fill="url(#paint22_linear_1_7238)"/>
<g opacity="0.8">
<path d="M320.3 326.01C290.82 303.55 263.98 275.42 248.89 240.6C243.85 228.98 240.43 216.58 238.9 203.91L239.41 205.01C239.14 204.75 236.85 202.2 236.65 202.01C235.77 197.2 235.5 192.4 235.43 187.64C235.32 173.94 237.04 160.35 239.3 146.88L239.41 146.21L240 146C246.86 143.49 256.63 143.49 262.51 144.47C266.37 142.1 270.25 139.75 274.11 137.43C270.43 140.08 266.75 142.71 263.06 145.3L262.93 145.39H262.75C255.36 145.17 247.67 145.34 240.75 148.1L241.45 147.21C239.84 160.54 238.55 174.13 238.91 187.56C239.06 192.01 239.38 196.48 240.22 200.72L239.74 199.77C240.03 200.11 242.33 202.52 242.57 202.78L242.65 203.42C249.35 253.71 284.31 293.75 320.3 325.99V326.01Z" fill="#151515"/>
<path d="M395.12 223.08L393.29 224.91L392.68 228.25C392.88 228.58 380.85 284.32 335.87 316.27H335.85C331.06 319.75 325.88 323 320.29 325.93C288.26 300.09 247.22 256.16 240.72 203.55L238.33 201.02C237.33 195.96 235.32 179.89 240.28 146.99C245.43 144.76 256.06 144.24 262.69 144.87C266.49 142.23 269.06 140.48 274.07 137.51C286.54 131.31 304.35 117.81 319.5 124.64C334.35 131.73 355.95 143.55 366.33 157.07C374.76 159.13 387.32 163.94 390.89 166.84C392.91 175.13 398.99 202.96 395.11 223.05V223.07L395.12 223.08Z" fill="url(#paint23_radial_1_7238)" fill-opacity="0.24"/>
<path d="M262.95 143.94C266.66 141.35 270.35 138.73 274.09 136.16H274.11C281.92 131.96 289.22 126.73 297.57 123.27C301.73 121.55 306.21 120.35 310.84 120.32C311.99 120.41 313.16 120.42 314.31 120.58L316.03 120.91C316.6 121.02 317.18 121.11 317.73 121.33L319.41 121.89L320.25 122.18L321.01 122.55L324.03 124.03C332 127.99 339.94 132.15 347.47 137.13C354.97 142.12 362.06 148 367.9 155.15L366.98 154.54C371.26 155.72 375.57 156.96 379.8 158.54C384.03 160.13 388.21 162.04 392.1 164.62L392.74 165.04L392.92 165.8C395.14 175.07 396.87 184.47 397.79 194C398.25 198.76 398.49 203.57 398.44 208.38C398.38 213.2 398.04 218.04 397.13 222.84L397.02 223.42L395.3 224.68C394.15 230.16 392.61 235.34 390.85 240.52C389.09 245.68 387.1 250.74 384.87 255.71C380.37 265.61 374.98 275.08 368.69 283.88C365.5 288.25 362.14 292.47 358.52 296.47C357.63 297.48 356.67 298.43 355.76 299.42C354.85 300.41 353.9 301.36 352.91 302.28L349.99 305.07L346.97 307.73C338.87 314.75 329.89 320.67 320.37 325.34C324.95 322.66 329.47 319.88 333.73 316.71C335.91 315.2 337.94 313.49 340.01 311.84C341.04 311 342.01 310.1 343.01 309.23C344.01 308.35 345.01 307.49 345.95 306.55L348.82 303.79L351.58 300.92L352.95 299.48L354.28 297.99C355.15 296.99 356.07 296.03 356.91 295C360.35 290.96 363.53 286.69 366.53 282.3C372.5 273.5 377.59 264.09 381.8 254.29C383.92 249.4 385.81 244.4 387.46 239.33C389.11 234.28 390.57 229.07 391.57 223.96L391.69 223.37L393.38 222.08C394.21 217.58 394.52 212.95 394.55 208.31C394.58 203.67 394.33 199.01 393.86 194.36C392.89 185.07 391.3 175.81 389.14 166.7L389.96 167.88C386.43 165.52 382.51 163.68 378.45 162.14C374.4 160.61 370.2 159.33 365.96 158.1L365.39 157.94L365.04 157.49C359.59 150.64 352.85 144.89 345.61 139.9C338.37 134.88 330.62 130.59 322.76 126.47L319.84 124.93L319.11 124.55L318.38 124.28L316.93 123.74C316.46 123.53 315.94 123.43 315.43 123.32L313.89 122.97C312.86 122.79 311.8 122.75 310.75 122.63C306.51 122.51 302.26 123.54 298.16 125.01C289.93 128 282.39 132.91 274.36 136.78H274.39C270.58 139.17 266.72 141.52 262.87 143.9L262.91 143.93L262.95 143.94Z" fill="url(#paint24_linear_1_7238)"/>
</g>
</g>
<defs>
<linearGradient id="paint0_linear_1_7238" x1="469.08" y1="237.65" x2="469.08" y2="310.78" gradientUnits="userSpaceOnUse">
<stop offset="0.23" stop-color="#F1E7EA"/>
<stop offset="1" stop-color="#B3EFEA"/>
</linearGradient>
<linearGradient id="paint1_linear_1_7238" x1="324.2" y1="323.73" x2="324.2" y2="398.25" gradientUnits="userSpaceOnUse">
<stop offset="0.23" stop-color="#F1E7EA"/>
<stop offset="1" stop-color="#B3EFEA"/>
</linearGradient>
<linearGradient id="paint2_linear_1_7238" x1="180.12" y1="266.79" x2="180.12" y2="324.88" gradientUnits="userSpaceOnUse">
<stop offset="0.23" stop-color="#F1E7EA"/>
<stop offset="1" stop-color="#B3EFEA"/>
</linearGradient>
<linearGradient id="paint3_linear_1_7238" x1="471.89" y1="322.93" x2="471.89" y2="397.34" gradientUnits="userSpaceOnUse">
<stop offset="0.23" stop-color="#F1E7EA"/>
<stop offset="1" stop-color="#B3EFEA"/>
</linearGradient>
<linearGradient id="paint4_linear_1_7238" x1="328.73" y1="398.26" x2="328.73" y2="470.87" gradientUnits="userSpaceOnUse">
<stop offset="0.23" stop-color="#F1E7EA"/>
<stop offset="1" stop-color="#B3EFEA"/>
</linearGradient>
<linearGradient id="paint5_linear_1_7238" x1="178.44" y1="332.35" x2="178.44" y2="402.38" gradientUnits="userSpaceOnUse">
<stop offset="0.23" stop-color="#F1E7EA"/>
<stop offset="1" stop-color="#B3EFEA"/>
</linearGradient>
<linearGradient id="paint6_linear_1_7238" x1="149.68" y1="94.54" x2="510.96" y2="110.42" gradientUnits="userSpaceOnUse">
<stop offset="0.1" stop-color="#CE192D"/>
<stop offset="1" stop-color="#FEFEFE" stop-opacity="0"/>
</linearGradient>
<linearGradient id="paint7_linear_1_7238" x1="172.01" y1="301.25" x2="189.84" y2="188.86" gradientUnits="userSpaceOnUse">
<stop offset="0.17" stop-color="#CE192D"/>
<stop offset="1" stop-color="#FEFEFE" stop-opacity="0"/>
</linearGradient>
<linearGradient id="paint8_linear_1_7238" x1="432.89" y1="212.5" x2="421.18" y2="300.65" gradientUnits="userSpaceOnUse">
<stop offset="0.3" stop-color="#CE192D"/>
<stop offset="1" stop-color="#FEFEFE" stop-opacity="0"/>
</linearGradient>
<linearGradient id="paint9_linear_1_7238" x1="17.2" y1="332.72" x2="467.63" y2="384.05" gradientUnits="userSpaceOnUse">
<stop offset="0.13" stop-color="#FEFEFE" stop-opacity="0"/>
<stop offset="1" stop-color="#CE192D"/>
</linearGradient>
<linearGradient id="paint10_linear_1_7238" x1="441.79" y1="192.89" x2="565" y2="265.41" gradientUnits="userSpaceOnUse">
<stop stop-color="#CE192D"/>
<stop offset="1" stop-color="#FEFEFE" stop-opacity="0"/>
</linearGradient>
<linearGradient id="paint11_linear_1_7238" x1="259.48" y1="247.94" x2="402.36" y2="171.43" gradientUnits="userSpaceOnUse">
<stop offset="0.05" stop-color="#DDDDDD"/>
<stop offset="0.08" stop-color="#D8D8D8"/>
<stop offset="0.12" stop-color="#E3E3E3"/>
<stop offset="0.21" stop-color="#DEDEDE"/>
<stop offset="0.37" stop-color="white"/>
<stop offset="0.58" stop-color="#EEEEEE"/>
<stop offset="0.69" stop-color="#E8E8E8"/>
<stop offset="0.79" stop-color="#FBFBFB"/>
<stop offset="0.83" stop-color="#F3F3F3"/>
<stop offset="0.9" stop-color="#E0E0E0"/>
<stop offset="0.92" stop-color="#D8D8D8"/>
<stop offset="0.97" stop-color="#F3F3F3"/>
<stop offset="1" stop-color="white"/>
</linearGradient>
<linearGradient id="paint12_linear_1_7238" x1="420.65" y1="217.42" x2="374.6" y2="145.21" gradientUnits="userSpaceOnUse">
<stop stop-color="white"/>
<stop offset="0.05" stop-color="#F3F3F3"/>
<stop offset="0.13" stop-color="#D8D8D8"/>
<stop offset="0.21" stop-color="#EEEEEE"/>
<stop offset="0.24" stop-color="#F7F7F7"/>
<stop offset="0.3" stop-color="#E8E8E8"/>
<stop offset="0.35" stop-color="#D9D9D9"/>
<stop offset="0.44" stop-color="#DADADA"/>
<stop offset="0.52" stop-color="#EEEEEE"/>
<stop offset="0.56" stop-color="#F2F2F2"/>
<stop offset="0.64" stop-color="white"/>
<stop offset="0.68" stop-color="#F6F6F6"/>
<stop offset="0.74" stop-color="#E0E0E0"/>
<stop offset="0.77" stop-color="#D6D6D6"/>
<stop offset="0.83" stop-color="#D8D8D8"/>
<stop offset="0.91" stop-color="#DDDDDD"/>
<stop offset="0.99" stop-color="#E3E3E3"/>
</linearGradient>
<linearGradient id="paint13_linear_1_7238" x1="297.94" y1="169.83" x2="384.66" y2="123.39" gradientUnits="userSpaceOnUse">
<stop offset="0.05" stop-color="#DDDDDD"/>
<stop offset="0.08" stop-color="#D8D8D8"/>
<stop offset="0.12" stop-color="#E3E3E3"/>
<stop offset="0.21" stop-color="#DEDEDE"/>
<stop offset="0.37" stop-color="white"/>
<stop offset="0.58" stop-color="#EEEEEE"/>
<stop offset="0.69" stop-color="#E8E8E8"/>
<stop offset="0.79" stop-color="#FBFBFB"/>
<stop offset="0.83" stop-color="#F3F3F3"/>
<stop offset="0.9" stop-color="#E0E0E0"/>
<stop offset="0.92" stop-color="#D8D8D8"/>
<stop offset="0.97" stop-color="#F3F3F3"/>
<stop offset="1" stop-color="white"/>
</linearGradient>
<linearGradient id="paint14_linear_1_7238" x1="386.64" y1="287.08" x2="354.52" y2="228.68" gradientUnits="userSpaceOnUse">
<stop stop-color="#E3E3E3"/>
<stop offset="0.09" stop-color="#DDDDDD"/>
<stop offset="0.17" stop-color="#D8D8D8"/>
<stop offset="0.26" stop-color="#D6D6D6"/>
<stop offset="0.28" stop-color="#E0E0E0"/>
<stop offset="0.33" stop-color="#F6F6F6"/>
<stop offset="0.37" stop-color="white"/>
<stop offset="0.38" stop-color="#F5F5F5"/>
<stop offset="0.44" stop-color="#D6D6D6"/>
<stop offset="0.48" stop-color="#EEEEEE"/>
<stop offset="0.53" stop-color="#DADADA"/>
<stop offset="0.63" stop-color="#D9D9D9"/>
<stop offset="0.69" stop-color="#E3E3E3"/>
<stop offset="0.7" stop-color="#E8E8E8"/>
<stop offset="0.76" stop-color="#F7F7F7"/>
<stop offset="0.79" stop-color="#EEEEEE"/>
<stop offset="0.87" stop-color="#D8D8D8"/>
<stop offset="0.95" stop-color="#F3F3F3"/>
<stop offset="1" stop-color="white"/>
</linearGradient>
<linearGradient id="paint15_linear_1_7238" x1="252.48" y1="133.32" x2="270.55" y2="155.53" gradientUnits="userSpaceOnUse">
<stop stop-color="#E3E3E3"/>
<stop offset="0.09" stop-color="#DDDDDD"/>
<stop offset="0.17" stop-color="#D8D8D8"/>
<stop offset="0.26" stop-color="#D6D6D6"/>
<stop offset="0.28" stop-color="#E0E0E0"/>
<stop offset="0.33" stop-color="#F6F6F6"/>
<stop offset="0.37" stop-color="white"/>
<stop offset="0.38" stop-color="#F5F5F5"/>
<stop offset="0.44" stop-color="#D6D6D6"/>
<stop offset="0.48" stop-color="#EEEEEE"/>
<stop offset="0.53" stop-color="#DADADA"/>
<stop offset="0.63" stop-color="#D9D9D9"/>
<stop offset="0.69" stop-color="#E3E3E3"/>
<stop offset="0.7" stop-color="#E8E8E8"/>
<stop offset="0.76" stop-color="#F7F7F7"/>
<stop offset="0.79" stop-color="#EEEEEE"/>
<stop offset="0.87" stop-color="#D8D8D8"/>
<stop offset="0.95" stop-color="#F3F3F3"/>
<stop offset="1" stop-color="white"/>
</linearGradient>
<linearGradient id="paint16_linear_1_7238" x1="305" y1="114" x2="364.9" y2="197.73" gradientUnits="userSpaceOnUse">
<stop stop-color="#85000D"/>
<stop offset="0.04" stop-color="#90000B"/>
<stop offset="0.1" stop-color="#AF0008"/>
<stop offset="0.19" stop-color="#E10003"/>
<stop offset="0.23" stop-color="#FF0000"/>
<stop offset="0.37" stop-color="#FF0202"/>
<stop offset="0.43" stop-color="#FF090A"/>
<stop offset="0.49" stop-color="#FF1717"/>
<stop offset="0.54" stop-color="#FF2A2A"/>
<stop offset="0.58" stop-color="#FF4243"/>
<stop offset="0.62" stop-color="#FF6061"/>
<stop offset="0.65" stop-color="#FF8485"/>
<stop offset="0.69" stop-color="#FFACAE"/>
<stop offset="0.7" stop-color="#FFB8BA"/>
<stop offset="0.71" stop-color="#FFA7AA"/>
<stop offset="0.73" stop-color="#FF9B9E"/>
<stop offset="0.75" stop-color="#FF9497"/>
<stop offset="0.8" stop-color="#FF9396"/>
<stop offset="1" stop-color="#FFE4E4"/>
</linearGradient>
<linearGradient id="paint17_linear_1_7238" x1="250.04" y1="149.62" x2="274.9" y2="149.62" gradientUnits="userSpaceOnUse">
<stop stop-color="#85000D"/>
<stop offset="0.11" stop-color="#90000B"/>
<stop offset="0.3" stop-color="#AF0008"/>
<stop offset="0.56" stop-color="#E10003"/>
<stop offset="0.7" stop-color="#FF0000"/>
</linearGradient>
<linearGradient id="paint18_linear_1_7238" x1="275.57" y1="260.49" x2="363.66" y2="135.86" gradientUnits="userSpaceOnUse">
<stop stop-color="#76000C"/>
<stop offset="0.14" stop-color="#A00008"/>
<stop offset="0.39" stop-color="#E40002"/>
<stop offset="0.5" stop-color="#FF0000"/>
<stop offset="0.63" stop-color="#F64848"/>
<stop offset="0.76" stop-color="#ED8A8A"/>
<stop offset="0.87" stop-color="#E7BABA"/>
<stop offset="0.95" stop-color="#E4D7D7"/>
<stop offset="1" stop-color="#E3E3E3"/>
</linearGradient>
<linearGradient id="paint19_linear_1_7238" x1="306.23" y1="222.02" x2="247.08" y2="259.22" gradientUnits="userSpaceOnUse">
<stop stop-color="#96000E"/>
<stop offset="0.09" stop-color="#9E000C"/>
<stop offset="0.24" stop-color="#B70009"/>
<stop offset="0.42" stop-color="#DE0004"/>
<stop offset="0.56" stop-color="#FF0000"/>
</linearGradient>
<linearGradient id="paint20_linear_1_7238" x1="389.39" y1="244.15" x2="390.17" y2="168.62" gradientUnits="userSpaceOnUse">
<stop offset="0.51" stop-color="#FF0000"/>
<stop offset="0.56" stop-color="#FF0808"/>
<stop offset="0.63" stop-color="#FF1E1E"/>
<stop offset="0.72" stop-color="#FF4242"/>
<stop offset="0.82" stop-color="#FF7474"/>
<stop offset="0.92" stop-color="#FFB4B4"/>
<stop offset="1" stop-color="#FFE4E4"/>
</linearGradient>
<radialGradient id="paint21_radial_1_7238" cx="0" cy="0" r="1" gradientUnits="userSpaceOnUse" gradientTransform="translate(320.215 218.384) rotate(5.96002) scale(4.95999 7.04001)">
<stop offset="0.25" stop-color="#76000C"/>
<stop offset="0.47" stop-color="#C70004"/>
<stop offset="0.63" stop-color="#FF0000"/>
<stop offset="0.83" stop-color="#FF0000"/>
<stop offset="0.87" stop-color="#F64848"/>
<stop offset="0.92" stop-color="#ED8A8A"/>
<stop offset="0.95" stop-color="#E7BABA"/>
<stop offset="0.98" stop-color="#E4D7D7"/>
<stop offset="1" stop-color="#E3E3E3"/>
</radialGradient>
<linearGradient id="paint22_linear_1_7238" x1="282.58" y1="233.63" x2="405.3" y2="178.07" gradientUnits="userSpaceOnUse">
<stop stop-color="#FF004A" stop-opacity="0"/>
<stop offset="0.25" stop-color="#FF1055" stop-opacity="0.02"/>
<stop offset="0.5" stop-color="#FF4279" stop-opacity="0.07"/>
<stop offset="0.76" stop-color="#FF94B3" stop-opacity="0.15"/>
<stop offset="1" stop-color="white" stop-opacity="0.25"/>
</linearGradient>
<radialGradient id="paint23_radial_1_7238" cx="0" cy="0" r="1" gradientUnits="userSpaceOnUse" gradientTransform="translate(320.721 208.554) rotate(-47.24) scale(92.91 104.43)">
<stop offset="0.55" stop-color="white" stop-opacity="0"/>
<stop offset="1" stop-color="white"/>
</radialGradient>
<linearGradient id="paint24_linear_1_7238" x1="261.84" y1="222.83" x2="398.52" y2="222.83" gradientUnits="userSpaceOnUse">
<stop stop-color="white" stop-opacity="0.05"/>
<stop offset="0.03" stop-color="white" stop-opacity="0.07"/>
<stop offset="0.07" stop-color="white" stop-opacity="0.14"/>
<stop offset="0.11" stop-color="white" stop-opacity="0.24"/>
<stop offset="0.16" stop-color="white" stop-opacity="0.39"/>
<stop offset="0.21" stop-color="white" stop-opacity="0.58"/>
<stop offset="0.27" stop-color="white" stop-opacity="0.81"/>
<stop offset="0.31" stop-color="#FBFBFB"/>
<stop offset="0.37" stop-color="#CFC1C0"/>
<stop offset="0.43" stop-color="#AB9190"/>
<stop offset="0.48" stop-color="#8E6B6A"/>
<stop offset="0.53" stop-color="#79504F"/>
<stop offset="0.57" stop-color="#6D403E"/>
<stop offset="0.61" stop-color="#693B39"/>
<stop offset="1" stop-color="white"/>
</linearGradient>
<clipPath id="clip0_1_7238">
<rect width="609" height="442.15" fill="white" transform="translate(11 44)"/>
</clipPath>
</defs>
</svg>
